<svg xmlns="http://www.w3.org/2000/svg" width="537" height="351" fill="none"><g clip-path="url(#a)"><path fill="#E9CCFF" d="M395.042 347.467c0-9.142 8.81-16.01 5.104-28.756H136.852c-3.713 12.753 5.104 19.614 5.104 28.756 0 1.18-.078 2.36-.205 3.526h253.496a32.612 32.612 0 0 1-.205-3.526Z"/><path fill="#0C0F1D" d="m400.147 318.711-.981.29c.071.254.127.495.191.735h.797v-1.025h-.007Z"/><path fill="#0C0F1D" d="M399.35 319.736c-.063-.248-.113-.488-.19-.735l.981-.29v1.025h-.798c.473 1.837.685 3.54.685 5.136 0 4.289-1.426 7.892-2.93 11.46-.748 1.781-1.51 3.547-2.096 5.377-.586 1.83-.988 3.731-.988 5.758 0 1.187.077 2.367.197 3.526h2.054a32.83 32.83 0 0 1-.211-3.526c0-1.752.345-3.433.889-5.136.812-2.551 2.075-5.13 3.155-7.963 1.08-2.833 1.97-5.935 1.97-9.496 0-1.999-.283-4.14-.953-6.45l-.212-.735H268.49v2.049h130.86Z"/><path fill="#0C0F1D" d="M142.979 347.467c0-2.027-.402-3.928-.988-5.758-.882-2.748-2.153-5.348-3.191-8.069-1.037-2.72-1.835-5.546-1.835-8.768 0-1.596.212-3.299.685-5.136h-.798v-1.025l.981.29c-.07.254-.127.495-.19.735h130.853v-2.049H136.083l-.212.735c-.671 2.303-.953 4.451-.953 6.45 0 4.755 1.581 8.669 3.085 12.252.755 1.794 1.489 3.504 2.033 5.207.543 1.703.889 3.384.889 5.136 0 1.173-.077 2.36-.212 3.526h2.055c.12-1.166.197-2.346.197-3.526h.014Z"/><path fill="#0C0F1D" d="M136.854 318.711v1.025h.797c.064-.247.113-.488.191-.735l-.981-.29h-.007Zm132.674 22.885h-2.048v9.397h2.048v-9.397Z"/><path fill="#F7F7F7" fill-rule="evenodd" d="M422.405 189.451c-15.473-26.934-17.506-37.221-21.608-39.969-3.706-2.53-36.558 4.183-43.758 3.483l-2.048-.233c-1.877-1.71-13.398-10.379-13.398-10.379-9.889-13.481-41.881-25.287-73.096-25.287-31.215 0-63.375 11.806-73.265 25.287 0 0-11.351 8.669-13.229 10.379l-2.047.233c-7.2.7-40.053-6.006-43.759-3.483-4.094 2.741-6.134 13.035-21.607 39.969" clip-rule="evenodd"/><path fill="#0C0F1D" d="M423.308 188.928c-7.716-13.439-12.071-22.701-15.029-28.975-1.475-3.144-2.605-5.54-3.649-7.369-1.045-1.823-2.005-3.123-3.255-3.964h.008c-.544-.353-1.137-.495-1.857-.601-.713-.106-1.553-.141-2.513-.148-2.372 0-5.485.261-8.965.65-5.224.579-11.259 1.448-16.702 2.169-2.717.36-5.294.685-7.532.918-2.237.234-4.143.375-5.506.375-.458 0-.854-.014-1.164-.05l-.099 1.039.12-1.039-2.047-.233-.12 1.039.699-.77a30.28 30.28 0 0 0-1.158-.975c-1.751-1.42-4.821-3.78-7.461-5.794-2.641-2.013-4.85-3.674-4.85-3.674l-.628.834.84-.615c-2.591-3.525-6.544-6.853-11.499-9.905-7.433-4.572-17.14-8.514-27.94-11.319-10.8-2.805-22.695-4.48-34.504-4.48-15.742 0-31.681 2.968-44.98 7.645-6.65 2.339-12.636 5.101-17.605 8.154-4.97 3.052-8.937 6.38-11.528 9.905l.84.615-.628-.827s-2.838 2.169-5.916 4.55a529.606 529.606 0 0 0-4.468 3.498c-.663.53-1.271 1.01-1.765 1.413-.494.41-.882.735-1.15.975l.699.77-.12-1.039-2.048.233.12 1.039-.098-1.039c-.311.029-.706.05-1.165.05-1.814 0-4.596-.247-7.85-.636-4.877-.572-10.842-1.441-16.454-2.162-5.612-.721-10.857-1.307-14.408-1.307-.96 0-1.8.042-2.513.148-.72.113-1.313.248-1.856.608h.007c-1.25.834-2.21 2.134-3.254 3.957-1.56 2.748-3.318 6.768-6.156 12.654-2.83 5.885-6.734 13.615-12.515 23.69l1.807 1.038c7.75-13.494 12.148-22.842 15.106-29.13 1.475-3.137 2.598-5.511 3.572-7.228.974-1.717 1.8-2.734 2.605-3.264h.007c.049-.05.416-.198.981-.276.565-.084 1.32-.127 2.216-.127 2.224 0 5.288.254 8.739.636 5.175.572 11.203 1.441 16.66 2.162 2.732.36 5.315.685 7.588.926 2.273.233 4.221.381 5.718.381.508 0 .96-.014 1.369-.056l2.386-.276.247-.226c.205-.191.579-.509 1.066-.897 1.694-1.385 4.723-3.752 7.32-5.759 1.299-1.003 2.492-1.921 3.361-2.586l1.411-1.081.12-.091.092-.121c2.358-3.214 6.12-6.415 10.935-9.368 7.221-4.43 16.793-8.316 27.459-11.079 10.666-2.762 22.427-4.416 34.032-4.416 15.48 0 31.179 2.933 44.196 7.525 6.508 2.296 12.346 5.009 17.146 7.963 4.8 2.953 8.556 6.154 10.914 9.368l.091.128.12.091s.72.544 1.829 1.378c1.666 1.258 4.2 3.187 6.494 4.96 1.151.883 2.238 1.731 3.12 2.438.882.699 1.574 1.264 1.878 1.547l.247.226 2.393.276c.409.042.861.056 1.369.056 1.991 0 4.8-.261 8.09-.65 4.927-.579 10.885-1.448 16.476-2.169 5.583-.721 10.807-1.293 14.139-1.293.896 0 1.652.042 2.216.127.565.071.932.219.981.269h.008c.804.537 1.63 1.554 2.604 3.271 1.469 2.572 3.24 6.62 6.085 12.527 2.845 5.914 6.777 13.7 12.586 23.824l1.808-1.038.035.007Z"/><path fill="#F7F7F7" fill-rule="evenodd" d="M422.405 189.451c4.482 7.814 7.355 36.075 7.355 36.075-12.162 9.97-36.318 16.724-36.318 16.724 9.134 14.519 21.205 56.403 22.003 66.902.212 2.819-8.669 8.556-8.669 8.556-32.471 17.614-86.515 23.895-138.279 23.895-51.763 0-105.807-6.274-138.278-23.895 0 0-8.881-5.737-8.669-8.556.798-10.499 12.876-52.383 22.003-66.902 0 0-24.156-6.754-36.319-16.724 0 0 2.873-28.268 7.356-36.075" clip-rule="evenodd"/><path fill="#0C0F1D" d="M421.5 189.966c.508.883 1.024 2.127 1.518 3.604.868 2.593 1.666 5.906 2.365 9.411 1.051 5.249 1.891 10.923 2.463 15.275.29 2.176.509 4.02.657 5.327.077.65.134 1.166.169 1.519.035.354.057.537.057.537l1.037-.106-.656-.805c-5.909 4.854-14.93 9.022-22.434 11.933a174.888 174.888 0 0 1-9.579 3.392 224.26 224.26 0 0 1-2.88.897c-.339.099-.6.177-.776.226a8.885 8.885 0 0 0-.269.078l-1.348.374.741 1.18c2.224 3.533 4.68 8.832 7.095 14.929 3.621 9.15 7.172 20.108 9.889 29.745 1.356 4.819 2.506 9.305 3.346 13.071.847 3.759 1.384 6.811 1.525 8.684v.021c0 .092-.049.346-.24.678-.325.587-.988 1.371-1.807 2.148-1.228 1.18-2.774 2.374-4.003 3.271a70.17 70.17 0 0 1-1.538 1.081c-.191.127-.346.233-.445.297l-.12.078-.035.028.564.876-.494-.918c-16.066 8.718-37.603 14.681-61.569 18.44-23.972 3.759-50.373 5.327-76.216 5.327-25.843 0-52.243-1.568-76.216-5.327-23.965-3.759-45.502-9.715-61.568-18.44l-.495.918.565-.876-.092-.057a54.853 54.853 0 0 1-4.553-3.356c-.981-.819-1.927-1.695-2.597-2.487-.332-.395-.593-.763-.749-1.066-.162-.304-.211-.53-.204-.615v-.014c.183-2.494 1.08-7.073 2.463-12.676 2.069-8.407 5.231-19.182 8.725-29.187 1.744-5.002 3.572-9.82 5.386-14.045 1.814-4.226 3.614-7.878 5.28-10.521l.742-1.18-1.349-.374s-.091-.028-.268-.078c-1.327-.381-7.461-2.197-14.662-5.073-7.2-2.868-15.473-6.825-21.014-11.375l-.657.805 1.038.106s.042-.438.134-1.222c.304-2.748 1.13-9.736 2.365-16.865.614-3.568 1.334-7.171 2.139-10.28.797-3.109 1.701-5.751 2.59-7.292l-1.807-1.038c-.614 1.074-1.164 2.423-1.687 3.985-.91 2.727-1.722 6.111-2.435 9.658-2.132 10.648-3.367 22.835-3.374 22.849l-.057.559.431.353c6.247 5.115 15.388 9.305 23.005 12.265 7.61 2.954 13.673 4.649 13.695 4.656l.282-1.003-.882-.558c-2.344 3.73-4.822 9.107-7.264 15.275-3.664 9.249-7.229 20.25-9.953 29.95-1.363 4.847-2.52 9.369-3.375 13.177-.854 3.816-1.404 6.91-1.567 8.98 0 .064-.007.12-.007.184 0 .622.219 1.173.501 1.689.509.904 1.292 1.773 2.189 2.642 1.341 1.286 2.943 2.522 4.221 3.455a53.976 53.976 0 0 0 2.238 1.547l.035.022.035.021c16.405 8.895 38.126 14.879 62.24 18.666 24.113 3.78 50.613 5.356 76.533 5.356 25.928 0 52.428-1.569 76.534-5.356 24.114-3.787 45.834-9.771 62.239-18.666l.036-.021.035-.022s2.209-1.427 4.426-3.221c1.108-.905 2.231-1.894 3.106-2.897.438-.502.819-1.004 1.108-1.526.283-.523.501-1.067.501-1.689v-.184c-.218-2.755-1.129-7.348-2.527-13.014-2.089-8.486-5.266-19.296-8.774-29.378-1.758-5.037-3.6-9.891-5.435-14.18-1.843-4.289-3.671-8.012-5.429-10.81l-.882.558.282 1.003s6.085-1.702 13.695-4.656c7.609-2.96 16.751-7.15 23.005-12.265l.431-.353-.057-.559s-.72-7.093-2.005-15.169c-.642-4.041-1.426-8.323-2.336-12.117-.452-1.893-.939-3.667-1.461-5.228-.523-1.562-1.073-2.911-1.688-3.985l-1.807 1.038-.014-.014Z"/><path fill="#0C0F1D" fill-rule="evenodd" d="M133.458 149.284c-1.496-.106-8.577 17.105-15.586 38.33-7.144 21.337-12.396 37.587-10.899 37.693 1.623.113 13.257-22.602 20.4-43.932 7.137-21.217 7.575-31.985 6.078-32.091h.007Z" clip-rule="evenodd"/><path fill="#0C0F1D" d="m133.457 149.284.078-1.039h-.092c-.297 0-.516.092-.671.184-.31.184-.487.382-.685.622-.36.438-.72 1.024-1.143 1.794-.734 1.343-1.624 3.222-2.64 5.568-3.05 7.037-7.243 18.243-11.415 30.883-3.162 9.432-5.95 17.875-7.955 24.382-1.002 3.257-1.807 6.02-2.365 8.203a43.33 43.33 0 0 0-.649 2.819c-.149.791-.24 1.42-.24 1.95 0 .283.014.537.127.862.063.156.155.346.346.523.183.177.48.311.748.325h.078c.352 0 .564-.12.727-.219.31-.198.515-.417.762-.7.445-.522.953-1.264 1.553-2.232 2.089-3.37 5.231-9.475 8.591-16.886 3.353-7.412 6.903-16.109 9.748-24.609 2.556-7.609 4.264-13.883 5.33-18.836 1.066-4.953 1.496-8.556 1.503-10.888 0-.94-.063-1.667-.225-2.268-.085-.304-.184-.579-.389-.862a1.512 1.512 0 0 0-.416-.396 1.401 1.401 0 0 0-.643-.212l-.077 1.039-.071 1.039.05-.714-.389.601a.722.722 0 0 0 .339.113l.05-.714-.389.601.29-.453-.424.34s.064.07.134.12l.29-.453-.424.34.198-.156-.212.134.014.022.198-.156-.212.134s.092.241.134.566c.05.332.078.784.078 1.342 0 2.084-.41 5.596-1.454 10.45-1.045 4.854-2.732 11.064-5.266 18.61-3.544 10.584-8.21 21.542-12.191 29.83-1.991 4.14-3.812 7.623-5.224 10.04-.706 1.208-1.313 2.155-1.765 2.762-.226.304-.409.523-.522.622l-.056.057h-.008v.007l.233.346-.155-.382-.078.043.233.346-.155-.382.29.721v-.77a.8.8 0 0 0-.29.049l.29.721v-.77.841l.049-.841h-.049v.841l.049-.841h.014l-.063.855.578-.629a.86.86 0 0 0-.522-.226l-.064.855.579-.629-.416.452.614-.141s-.014-.127-.198-.311l-.416.452.614-.141s-.007-.071-.007-.17c0-.282.063-.84.205-1.561.487-2.551 1.835-7.242 3.741-13.311 1.913-6.084 4.391-13.573 7.151-21.818 3.487-10.563 6.995-20.129 9.805-27.039 1.404-3.455 2.647-6.246 3.607-8.14.48-.946.896-1.674 1.2-2.112a2.59 2.59 0 0 1 .332-.417l.021-.021-.233-.304.155.346.078-.042-.233-.304.155.346-.31-.692v.756a.692.692 0 0 0 .31-.064l-.31-.692v.756-.855l-.064.855h.064v-.855l-.064.855.071-1.039.035-.028Z"/><path fill="#98EFE4" fill-rule="evenodd" d="M109.655 216.525c17.768-27.498 22.525-45.48 26.288-66.937-23.987-4.501-58.096-24.404-63.235-26.107-7.948-2.628-24.156-31.942-34.61-21.521-7.469 7.475 3.339 23.662-11.69 13.488a172.493 172.493 0 0 0-10.03-6.663c-11.055-6.373-17.662 2.989-14.422 13.17 1.228 3.611 5.301 7.779 8.71 10.817 1.292 1.187-4.376-1.766-7.517 1.526-4.631 4.769-.904 11.828 3.875 16.66 0 0-12.346 12.231 10.751 25.16 2.88 1.661 86.423 39.411 91.866 40.407h.014Z" clip-rule="evenodd"/><path fill="#0C0F1D" d="m109.655 216.525.875.565c8.916-13.798 14.591-25.244 18.502-35.941 3.91-10.697 6.056-20.631 7.941-31.385l.177-1.017-1.01-.191c-11.817-2.211-26.302-8.287-38.43-14.024-6.07-2.869-11.555-5.653-15.847-7.829a494.236 494.236 0 0 0-5.477-2.748c-1.49-.721-2.584-1.23-3.34-1.477-.656-.212-1.517-.728-2.477-1.491-1.687-1.328-3.678-3.384-5.817-5.709-3.219-3.49-6.783-7.574-10.426-10.831-1.821-1.625-3.663-3.052-5.527-4.084-1.856-1.031-3.741-1.688-5.647-1.688-1.017 0-2.04.198-3.014.615-.975.416-1.9 1.059-2.768 1.921-1.531 1.533-2.364 3.392-2.809 5.257-.445 1.865-.515 3.759-.515 5.461 0 .905.02 1.76.02 2.523 0 1.208-.07 2.204-.26 2.706-.092.254-.184.36-.24.403-.064.042-.127.091-.389.091-.374 0-1.094-.169-2.124-.664-1.031-.494-2.372-1.286-4.052-2.423l-.586.862.607-.848c-4.186-2.982-7.2-4.91-10.08-6.698h-.014l-.015-.014c-2.626-1.512-5.082-2.219-7.292-2.219-1.46 0-2.809.311-3.995.891-1.779.862-3.176 2.317-4.101 4.097-.932 1.788-1.412 3.908-1.412 6.183 0 1.745.282 3.582.875 5.44v.021c.692 2.014 2.09 4.027 3.735 5.963 1.644 1.929 3.543 3.759 5.273 5.292l.691-.777-.706.77.036.036.41-.368-.474.276c.043.07.064.084.064.092l.41-.368-.474.276.805-.474h-.925c.007.283.092.41.127.474l.805-.474H9.84h1.003l-.79-.614a.997.997 0 0 0-.213.614h1.003l-.79-.614.776.607-.466-.869a1.07 1.07 0 0 0-.31.262l.776.607-.466-.869.43.799-.14-.898a.917.917 0 0 0-.29.099l.43.799-.14-.898.098.629v-.636h-.099l.099.636v-.636s-.155-.021-.353-.056c-.614-.106-1.708-.339-2.958-.339-.797 0-1.666.091-2.541.381a5.987 5.987 0 0 0-2.478 1.562l.756.72-.749-.728C.734 135.287-.007 137.379 0 139.47c0 2.205.762 4.409 1.913 6.486 1.15 2.077 2.704 4.035 4.377 5.73l.74-.735-.733-.741c-.05.049-.932.925-1.814 2.472-.89 1.541-1.786 3.766-1.786 6.472 0 2.53.804 5.448 3.042 8.486 2.238 3.038 5.866 6.203 11.541 9.383l.509-.912-.523.905c.135.077.311.162.558.289.967.481 3.014 1.434 5.894 2.77 10.088 4.649 30.305 13.791 48.587 21.874 9.142 4.042 17.796 7.822 24.467 10.641 3.332 1.413 6.17 2.586 8.323 3.433 1.08.424 1.983.77 2.71 1.025.727.254 1.243.417 1.659.501l.685.128.374-.587-.875-.565.183-1.024a4.824 4.824 0 0 1-.607-.17c-1.165-.367-3.466-1.258-6.551-2.529-10.807-4.437-31.32-13.502-49.427-21.62a3706.792 3706.792 0 0 1-23.852-10.789 840.566 840.566 0 0 1-7.737-3.568c-.96-.452-1.744-.82-2.322-1.095-.29-.142-.523-.255-.706-.347a4.818 4.818 0 0 1-.34-.176h-.006c-5.492-3.074-8.88-6.076-10.878-8.797-1.998-2.727-2.633-5.157-2.633-7.249 0-2.232.748-4.112 1.51-5.433.382-.657.763-1.18 1.038-1.526.141-.177.254-.304.332-.389l.085-.091.02-.022.742-.734-.734-.742c-1.56-1.576-3.007-3.406-4.038-5.278-1.037-1.865-1.652-3.766-1.652-5.476.007-1.632.516-3.094 1.822-4.451h.007a3.899 3.899 0 0 1 1.63-1.032c.6-.197 1.25-.275 1.885-.275.685 0 1.355.085 1.906.184.275.049.522.091.748.134.226.035.396.071.657.078.113 0 .24 0 .5-.092.128-.05.297-.149.446-.339a1.07 1.07 0 0 0 .226-.665.983.983 0 0 0-.12-.494c-.078-.163-.149-.24-.22-.318a4.508 4.508 0 0 0-.19-.198h-.007v-.014c-1.68-1.498-3.522-3.271-5.068-5.087-1.553-1.816-2.81-3.688-3.346-5.285l-.989.339.996-.318c-.53-1.66-.777-3.285-.777-4.804 0-2.643.756-4.946 2.033-6.543a6.758 6.758 0 0 1 2.309-1.865c.896-.438 1.92-.678 3.084-.678 1.765 0 3.869.565 6.255 1.943l.522-.905-.55.884c2.865 1.78 5.83 3.673 9.974 6.627h.007l.014.014c1.736 1.173 3.148 2.014 4.327 2.579 1.179.558 2.125.862 3.021.862.6 0 1.208-.17 1.666-.537.346-.269.593-.622.77-.982.26-.544.374-1.131.444-1.76.071-.628.085-1.3.085-2.013 0-.799-.021-1.646-.021-2.523 0-1.646.07-3.377.459-4.981.381-1.603 1.059-3.059 2.259-4.267.706-.7 1.412-1.173 2.117-1.484a5.483 5.483 0 0 1 2.189-.445c1.073 0 2.23.29 3.466.841 2.153.961 4.482 2.713 6.819 4.861 3.508 3.215 7.03 7.27 10.25 10.732 1.609 1.731 3.14 3.314 4.58 4.586 1.448 1.264 2.782 2.225 4.13 2.684.53.177 1.63.665 3.078 1.371 5.118 2.487 14.901 7.687 26.026 12.753 11.133 5.066 23.613 10.012 34.265 12.011l.191-1.024-1.024-.184c-1.878 10.704-3.995 20.489-7.843 31.024-3.854 10.534-9.445 21.825-18.297 35.525l.876.565-.007.021Z"/><path fill="#0C0F1D" d="M34.045 111.322v.035c0 8.662 2.259 14.286 4.581 17.741 2.323 3.455 4.673 4.713 4.786 4.776l.487-.925-1.03-.127a26.624 26.624 0 0 0-.205 3.285c0 5.772 2.005 10.28 4.595 13.41a17.675 17.675 0 0 0 4.137 3.688c1.412.89 2.795 1.449 4.045 1.654l.332-2.056c-.883-.142-2.048-.587-3.269-1.357-1.828-1.152-3.776-3.017-5.259-5.575-1.482-2.557-2.499-5.793-2.506-9.757 0-.968.064-1.978.19-3.031l.093-.713-.636-.333-.197.375.197-.367s-2.075-1.124-4.13-4.24c-2.053-3.123-4.129-8.252-4.129-16.427v-.035h-2.082v-.021Z"/><path fill="#0C0F1D" fill-rule="evenodd" d="M143.559 242.25s13.475-22.694 12.395-21.677c-5.259 5.37-18.621 19.077-24.268 17.636 1.814.855 11.477 3.928 11.873 4.041Z" clip-rule="evenodd"/><path fill="#0C0F1D" d="m143.559 242.25.896.53s3.113-5.243 6.234-10.584c1.56-2.671 3.12-5.363 4.291-7.433a146.203 146.203 0 0 0 1.426-2.579c.177-.332.311-.6.417-.819.049-.113.092-.205.134-.304.021-.049.035-.099.056-.17.015-.07.043-.141.05-.332 0-.106 0-.282-.155-.558a1.047 1.047 0 0 0-.389-.374.955.955 0 0 0-.508-.127c-.191 0-.318.042-.402.077a1.13 1.13 0 0 0-.247.142l-.113.098-.014.015-.022.021c-2.498 2.55-6.804 6.966-11.216 10.718-2.203 1.879-4.433 3.589-6.445 4.804-1.003.608-1.956 1.096-2.803 1.421-.847.325-1.588.487-2.167.48-.24 0-.452-.028-.635-.071l-.699 1.95c.275.128.635.276 1.094.445 1.574.594 4.2 1.477 6.494 2.233a548.405 548.405 0 0 0 3.975 1.286c.12.035.226.071.303.092l.177.049.769.212.41-.685-.897-.53.275-1.003h-.007c-.141-.043-.861-.269-1.856-.594-1.497-.48-3.65-1.18-5.591-1.837-.967-.325-1.885-.643-2.633-.918a24.566 24.566 0 0 1-1.609-.629l-.445.94-.254 1.01c.374.099.762.141 1.15.141.939 0 1.906-.24 2.909-.621 1.757-.679 3.649-1.823 5.612-3.236 2.936-2.113 6.007-4.819 8.76-7.426 2.753-2.6 5.195-5.101 6.833-6.776l-.741-.727.713.763-.558-.594.445.685c.07-.049.092-.07.113-.084l-.558-.594.445.686-.537-.813.367.904c.078-.035.127-.063.163-.084l-.537-.813.367.904-.388-.946v1.017a.905.905 0 0 0 .388-.078l-.388-.946v1.017-1.032l-.494.905c.169.099.36.127.494.127v-1.032l-.494.905.501-.905-.812.636a1.1 1.1 0 0 0 .318.269l.501-.905-.812.636.812-.628-.995.24c.028.099.07.24.19.395l.812-.628-.995.24.974-.233h-1.002c0 .056 0 .127.028.233l.974-.233h-1.002.861l-.833-.241s-.028.071-.028.241h.861l-.833-.241.367.106-.36-.127v.021l.36.106-.36-.127-.014.029c-.035.084-.127.268-.247.515-.48.933-1.49 2.728-2.711 4.868a1094.983 1094.983 0 0 1-6.071 10.408c-.938 1.596-1.771 2.995-2.357 3.999-.593.996-.946 1.596-.946 1.596l.896.53-.035-.028ZM8.484 132.179c1.688 1.745 3.953 3.165 5.965 4.19 1.003.508 1.941.911 2.718 1.201.388.141.741.254 1.045.339.317.077.564.134.875.141h.085l-.106-2.084.021.367v-.374h-.021l.021.374v-.374s-.19-.029-.424-.092c-.832-.226-2.42-.869-4.066-1.774-1.651-.904-3.388-2.084-4.616-3.363l-1.497 1.449Zm-3.437 18.179c1.885 1.985 4.207 3.087 6.127 3.716.96.311 1.821.509 2.492.622.67.12 1.136.163 1.348.17l.113-2.085c-.092 0-.508-.042-1.094-.141a16.051 16.051 0 0 1-3.53-1.053c-1.355-.586-2.774-1.441-3.931-2.67l-1.511 1.434-.014.007Zm177.182 1.639c.247 7.39 2.731 14.562 7.051 21.118 6.488 9.842 17.104 18.342 30.686 24.397 13.582 6.048 30.142 9.651 48.538 9.651v-2.084c-24.17 0-45.051-6.316-59.945-16.137-7.448-4.911-13.405-10.69-17.542-16.978-4.144-6.288-6.473-13.071-6.706-20.045l-2.082.071v.007Z"/><path fill="#0C0F1D" fill-rule="evenodd" d="M403.542 149.284c1.497-.106 8.577 17.105 15.587 38.33 7.143 21.337 12.395 37.587 10.899 37.693-1.624.113-13.257-22.602-20.401-43.932-7.136-21.217-7.574-31.985-6.078-32.091h-.007Z" clip-rule="evenodd"/><path fill="#0C0F1D" d="m403.542 149.284.077 1.039-.063-.848v.855h.063l-.063-.855v.855-.714l-.353.629c.042.021.155.085.353.085v-.714l-.353.629.141-.247-.17.226.036.021.141-.247-.17.226.015.014c.049.042.162.176.296.367.261.368.614.961 1.01 1.731 1.411 2.699 3.494 7.553 5.88 13.742 2.386 6.197 5.082 13.735 7.765 21.868 3.155 9.432 5.943 17.868 7.934 24.34.995 3.236 1.793 5.984 2.344 8.104.275 1.06.48 1.964.621 2.692.141.72.204 1.271.204 1.561 0 .071 0 .127-.007.148v.015l.509.106-.41-.311c-.099.141-.099.205-.106.205l.516.106-.41-.311.664.494-.41-.713a.762.762 0 0 0-.247.219l.664.494-.41-.713.431.742-.064-.855a.88.88 0 0 0-.367.113l.431.742-.064-.855h.008l.049.84v-.84h-.049l.049.84v-.84.671l.36-.587s-.113-.077-.36-.084v.671l.36-.587-.064.106.071-.099h-.007l-.064.099.071-.099s-.155-.134-.332-.353c-.339-.41-.826-1.123-1.397-2.056-2.019-3.285-5.139-9.354-8.443-16.667-3.304-7.32-6.798-15.89-9.593-24.241-2.534-7.546-4.222-13.756-5.266-18.61-1.045-4.854-1.454-8.366-1.454-10.45 0-.827.07-1.434.155-1.731.021-.071.042-.127.049-.155v-.022h.014l-.331-.183.233.289a.377.377 0 0 0 .098-.106l-.331-.183.233.289-.438-.551.049.7a.722.722 0 0 0 .389-.149l-.438-.551.049.7-.077-1.039-.071-1.039a1.393 1.393 0 0 0-.642.212c-.318.205-.48.467-.6.707-.177.367-.261.756-.332 1.215-.064.459-.092.989-.092 1.604 0 2.332.438 5.942 1.504 10.888 1.066 4.945 2.774 11.227 5.329 18.836 3.579 10.697 8.273 21.705 12.29 30.07 2.012 4.183 3.847 7.694 5.301 10.188.727 1.251 1.356 2.24 1.892 2.954.268.36.508.65.755.883.128.12.255.226.417.332.162.099.374.212.727.219h.085c.268-.014.564-.148.748-.325a1.46 1.46 0 0 0 .416-.756c.05-.219.064-.417.064-.629 0-.53-.092-1.159-.24-1.95-.529-2.748-1.885-7.44-3.805-13.551-1.92-6.105-4.405-13.601-7.165-21.86-3.501-10.598-7.016-20.193-9.854-27.16-1.419-3.483-2.668-6.309-3.678-8.294-.508-.997-.946-1.774-1.348-2.353a5.09 5.09 0 0 0-.607-.742 2.007 2.007 0 0 0-.395-.297 1.31 1.31 0 0 0-.671-.183h-.092l.071 1.038-.028-.014Z"/><path fill="#98EFE4" fill-rule="evenodd" d="M427.352 216.525c-17.767-27.498-22.525-45.48-26.288-66.937 23.987-4.501 58.096-24.404 63.235-26.107 7.949-2.628 24.156-31.942 34.61-21.521 7.469 7.475-3.339 23.662 11.69 13.488a172.59 172.59 0 0 1 10.031-6.663c11.054-6.373 17.662 2.989 14.422 13.17-1.229 3.611-5.302 7.779-8.711 10.817-1.292 1.187 4.383-1.766 7.518 1.526 4.63 4.769.903 11.828-3.876 16.66 0 0 12.346 12.231-10.751 25.16-2.88 1.661-86.423 39.411-91.866 40.407h-.014Z" clip-rule="evenodd"/><path fill="#0C0F1D" d="m427.352 216.525.876-.565c-8.852-13.7-14.443-24.99-18.297-35.525-3.855-10.534-5.965-20.32-7.843-31.024l-1.024.184.191 1.024c12.17-2.289 26.733-8.422 38.938-14.187 6.099-2.883 11.605-5.673 15.896-7.85a452.334 452.334 0 0 1 5.45-2.734c1.454-.706 2.548-1.201 3.078-1.371 1.03-.346 2.047-.989 3.113-1.836 1.863-1.477 3.889-3.59 6.056-5.928 3.24-3.519 6.784-7.56 10.285-10.69 1.751-1.562 3.488-2.897 5.146-3.816 1.659-.925 3.226-1.427 4.631-1.427.762 0 1.475.142 2.188.445.706.304 1.412.785 2.118 1.484 1.2 1.201 1.871 2.657 2.259 4.261.381 1.603.459 3.334.459 4.981 0 .876-.021 1.724-.021 2.522 0 1.272.035 2.402.381 3.405.176.495.459.99.925 1.35.458.367 1.065.537 1.665.537.897 0 1.843-.311 3.022-.862 1.179-.565 2.59-1.399 4.327-2.579l.014-.014a171.497 171.497 0 0 1 9.974-6.627l-.55-.884.522.905c2.386-1.378 4.49-1.943 6.254-1.943 1.172 0 2.196.247 3.085.678 1.341.65 2.414 1.745 3.17 3.194.755 1.441 1.179 3.236 1.179 5.214 0 1.519-.247 3.144-.777 4.804l.995.318-.988-.339c-.536 1.59-1.793 3.469-3.346 5.285-1.553 1.823-3.388 3.596-5.068 5.087l-.014.014a2.41 2.41 0 0 0-.261.276c-.043.056-.099.127-.149.233a1.198 1.198 0 0 0-.12.495c0 .204.078.48.226.664.113.141.24.233.346.289.162.085.282.106.374.128.092.014.163.014.226.014.254 0 .424-.043.657-.078.649-.113 1.616-.318 2.647-.318.635 0 1.284.078 1.884.276a3.87 3.87 0 0 1 1.631 1.024h.007c1.306 1.364 1.814 2.826 1.821 4.458 0 1.71-.614 3.611-1.651 5.476-1.031 1.865-2.478 3.695-4.038 5.278l-.734.742.741.734c.049.05.812.841 1.546 2.155.734 1.314 1.44 3.144 1.44 5.306 0 2.092-.635 4.522-2.633 7.249-1.998 2.721-5.386 5.723-10.878 8.797h-.014a7.314 7.314 0 0 1-.445.226c-.918.452-2.972 1.42-5.845 2.741-10.066 4.642-30.29 13.778-48.559 21.861-9.134 4.041-17.788 7.814-24.431 10.626a401.198 401.198 0 0 1-8.273 3.412 87.268 87.268 0 0 1-2.64.997c-.678.24-1.179.388-1.341.416l.183 1.025.184 1.024c.254-.049.522-.12.861-.233 1.299-.41 3.6-1.307 6.713-2.586 10.857-4.465 31.37-13.523 49.491-21.648a3911.204 3911.204 0 0 0 23.866-10.796c3.177-1.448 5.817-2.67 7.751-3.568.967-.452 1.751-.819 2.344-1.102.296-.141.536-.261.734-.36.197-.099.332-.17.452-.233l-.523-.905.508.912c5.676-3.18 9.304-6.345 11.542-9.383 2.238-3.031 3.042-5.956 3.042-8.486 0-2.706-.896-4.931-1.786-6.472-.889-1.547-1.771-2.423-1.814-2.472l-.734.741.741.735c1.673-1.695 3.226-3.653 4.377-5.73 1.15-2.077 1.906-4.281 1.913-6.486.007-2.091-.734-4.182-2.407-5.899l-.749.727.756-.72a6.033 6.033 0 0 0-2.478-1.562c-.875-.289-1.744-.381-2.541-.381-.861 0-1.645.106-2.252.212-.304.049-.565.099-.762.134-.099.014-.177.028-.233.035h-.064l-.007.007v.212l.007-.212h-.007l.007.212v-.212.792l.304-.728c-.212-.078-.276-.064-.304-.064v.792l.304-.728-.374.904.769-.6a1.003 1.003 0 0 0-.395-.304l-.374.904.769-.6-.791.614h1.003a1.06 1.06 0 0 0-.212-.614l-.791.614h1.003-.946l.854.417a.928.928 0 0 0 .092-.417h-.946l.854.417-.586-.282.494.431s.036-.036.092-.149l-.586-.282.494.431-.028-.022.028.029.043-.036-.706-.77.691.777c1.73-1.54 3.629-3.37 5.274-5.292 1.644-1.928 3.035-3.949 3.734-5.963v-.021c.593-1.858.875-3.695.875-5.44 0-3.031-.854-5.794-2.492-7.843a8.815 8.815 0 0 0-3.021-2.437c-1.186-.58-2.534-.891-3.995-.891-2.21 0-4.666.707-7.292 2.219h-.014l-.015.014a177.462 177.462 0 0 0-10.087 6.698l.607.848-.586-.862c-1.68 1.137-3.021 1.929-4.052 2.423-1.03.495-1.757.672-2.124.664-.262 0-.325-.049-.389-.091a.622.622 0 0 1-.176-.241c-.106-.212-.205-.586-.254-1.081-.057-.494-.071-1.109-.071-1.787 0-.763.021-1.618.021-2.522 0-1.703-.07-3.597-.515-5.462-.445-1.865-1.278-3.723-2.809-5.257-.862-.862-1.793-1.504-2.768-1.921a7.616 7.616 0 0 0-3.014-.615c-1.447 0-2.887.382-4.313 1.017-2.492 1.117-4.948 3.003-7.376 5.222-3.636 3.327-7.187 7.425-10.363 10.852-1.588 1.71-3.085 3.257-4.433 4.437-1.341 1.187-2.541 1.993-3.41 2.268-.755.254-1.849.756-3.339 1.477-5.181 2.522-14.915 7.694-25.977 12.732-11.054 5.037-23.443 9.926-33.784 11.862l-1.01.191.177 1.017c1.885 10.754 4.031 20.688 7.941 31.385 3.911 10.697 9.586 22.143 18.502 35.941l.374.587.685-.128-.184-1.024Z"/><path fill="#0C0F1D" d="M500.873 111.322v.035c0 8.302-2.146 13.474-4.229 16.575-1.045 1.555-2.075 2.586-2.838 3.229-.381.318-.691.544-.903.686-.106.07-.184.12-.233.148l-.049.028h-.008l-.635.332.092.714c.134 1.053.191 2.063.191 3.031 0 5.285-1.815 9.284-4.116 12.082-1.15 1.392-2.421 2.48-3.642 3.25-1.214.77-2.386 1.215-3.269 1.356l.332 2.056c1.25-.204 2.633-.763 4.045-1.653 2.118-1.335 4.292-3.434 5.951-6.288 1.659-2.854 2.788-6.479 2.781-10.803 0-1.053-.064-2.148-.205-3.285l-1.03.127.487.925c.113-.056 2.463-1.321 4.786-4.776 2.322-3.448 4.588-9.079 4.581-17.741v-.035h-2.082l-.007.007Z"/><path fill="#0C0F1D" fill-rule="evenodd" d="M393.442 242.25s-13.476-22.694-12.396-21.677c5.259 5.37 18.622 19.077 24.269 17.636-1.814.855-11.478 3.928-11.873 4.041Z" clip-rule="evenodd"/><path fill="#0C0F1D" d="m393.442 242.25.896-.53s-.197-.325-.536-.904a2016.028 2016.028 0 0 1-6.855-11.658 403.41 403.41 0 0 1-3.529-6.161 83.774 83.774 0 0 1-1.101-2.014 22.618 22.618 0 0 1-.283-.565l-.049-.113-.565.184.579-.128-.014-.056-.565.184.579-.128-.889.198h.91c0-.113-.014-.162-.021-.198l-.889.198h.91-1.016l.868.53c.148-.268.141-.431.148-.53h-1.016l.868.53-.882-.537.501.905c.169-.092.31-.241.381-.368l-.882-.537.501.905-.494-.905v1.032c.141 0 .324-.036.494-.127l-.494-.905v1.032-1.018l-.382.947c.078.028.198.071.382.078v-1.018l-.382.947.36-.89-.571.77a.775.775 0 0 0 .211.12l.36-.89-.571.77.459-.615-.523.559.064.056.459-.615-.523.559.713-.763-.741.727c2.499 2.551 6.847 7.009 11.358 10.846 2.259 1.921 4.553 3.688 6.713 5.002 1.08.657 2.125 1.194 3.134 1.582 1.01.382 1.97.622 2.908.622.389 0 .777-.042 1.151-.141l-.254-1.01-.445-.94c-.176.085-.515.219-.939.381-1.496.566-4.122 1.449-6.402 2.198-1.144.374-2.195.713-2.986.968-.395.127-.727.233-.967.303-.12.036-.219.071-.29.092l-.084.029h-.029v.007l.276 1.003.275 1.003c.057-.014.113-.035.205-.063.713-.219 3.205-1.018 5.753-1.859 1.271-.423 2.555-.854 3.635-1.236a92.689 92.689 0 0 0 1.44-.523c.417-.155.749-.297 1.01-.417l-.699-1.95c-.184.05-.395.071-.635.071-.579 0-1.32-.155-2.167-.481-1.483-.565-3.269-1.632-5.139-2.981-2.81-2.021-5.831-4.684-8.549-7.249-2.718-2.565-5.132-5.045-6.777-6.719l-.014-.021-.014-.015c-.042-.035-.085-.077-.169-.134a.975.975 0 0 0-.191-.099 1.01 1.01 0 0 0-.402-.077 1.14 1.14 0 0 0-.508.127c-.127.07-.24.169-.325.275a1.1 1.1 0 0 0-.198.403c-.028.106-.028.191-.028.247 0 .191.035.262.049.332.036.127.071.212.12.311.163.368.459.926.876 1.689 1.447 2.649 4.334 7.609 6.868 11.926 2.527 4.31 4.701 7.963 4.701 7.963l.41.685.769-.212-.275-1.003-.035.007Zm133.576-111.52c-1.426 1.477-3.536 2.834-5.407 3.773-.932.474-1.807.848-2.492 1.102a8.69 8.69 0 0 1-.861.276l-.268.064h-.071l-.014.014v.374l.021-.367h-.021v.367l.021-.367-.106 2.084h.085c.311 0 .558-.056.875-.141.537-.142 1.207-.382 1.984-.707 2.322-.982 5.527-2.734 7.744-5.016l-1.497-1.449.007-.007Zm3.423 18.194c-1.545 1.639-3.55 2.614-5.258 3.165-.855.275-1.624.452-2.21.551a8.538 8.538 0 0 1-1.094.141l.113 2.085c.212-.015.67-.057 1.348-.17a18.152 18.152 0 0 0 3.996-1.194c1.545-.671 3.211-1.66 4.623-3.151l-1.51-1.434-.008.007Zm-177.744 3.002c-.24 6.974-2.57 13.757-6.706 20.045-6.205 9.432-16.504 17.72-29.796 23.641-13.293 5.92-29.564 9.474-47.691 9.474v2.084c24.537 0 45.792-6.401 61.089-16.483 7.652-5.045 13.814-11.008 18.134-17.572 4.32-6.563 6.798-13.728 7.052-21.118l-2.082-.071Z"/><path fill="#98EFE4" d="M268.504 10.096c-18.989 0-34.688 11.213-40.208 23.16-4.991 10.846-25.744 73.827-30.227 88.869-28.857 94.888 169.515 94.888 140.658 0-4.553-15.042-25.236-78.023-30.304-88.868-5.478-11.99-20.966-23.16-39.919-23.16Z"/><path fill="#0C0F1D" d="M268.503 9.058a49.11 49.11 0 0 0-25.695 7.256c-7.144 4.395-12.586 10.308-15.452 16.512-.642 1.406-1.518 3.582-2.577 6.387-7.397 19.585-23.767 69.417-27.706 82.622-1.991 6.55-2.923 12.675-2.923 18.37 0 9.03 2.344 16.971 6.438 23.768 6.149 10.195 16.208 17.776 28.152 22.821 11.95 5.038 25.8 7.546 39.65 7.546 18.466 0 36.94-4.451 50.895-13.439 6.975-4.493 12.813-10.131 16.914-16.928 4.101-6.79 6.445-14.738 6.438-23.768 0-5.695-.932-11.827-2.923-18.377-2.287-7.546-8.591-27.046-14.972-46.038-3.191-9.496-6.388-18.857-9.12-26.53a507.422 507.422 0 0 0-3.671-10.054c-1.066-2.805-1.941-4.981-2.598-6.387-2.844-6.21-8.223-12.132-15.304-16.52-7.08-4.387-15.875-7.241-25.56-7.241v2.084c9.275 0 17.697 2.734 24.466 6.931 6.77 4.19 11.874 9.856 14.507 15.622.607 1.314 1.482 3.476 2.541 6.253 7.391 19.465 23.732 69.36 27.706 82.488 1.942 6.38 2.831 12.3 2.831 17.769 0 8.669-2.231 16.208-6.141 22.687-5.859 9.715-15.53 17.063-27.177 21.973-11.641 4.918-25.243 7.383-38.846 7.383-18.135 0-36.262-4.394-49.766-13.106-6.756-4.352-12.353-9.771-16.257-16.25-3.911-6.479-6.141-14.018-6.141-22.687 0-5.469.889-11.389 2.83-17.769 2.231-7.497 8.542-27.011 14.916-45.982 3.184-9.488 6.388-18.843 9.099-26.495a523.594 523.594 0 0 1 3.642-10.011c1.052-2.777 1.921-4.94 2.521-6.246 2.654-5.744 7.821-11.41 14.654-15.608a47.064 47.064 0 0 1 24.608-6.945V9.065l.021-.007Z"/><path fill="#0C0F1D" fill-rule="evenodd" d="M256.856 69.721c-10.92 2.24-26.252 17.282-29.648 26.17-1.376 3.568-2.315 6.861-2.894 9.934-6 32.819 31.173 36.874 43.971 24.771 12.868 12.103 49.971 8.048 44.041-24.771-.579-3.081-1.518-6.366-2.894-9.934-3.403-8.888-18.728-23.93-29.648-26.17-7.158-1.816-16.052-1.816-22.928 0Z" clip-rule="evenodd"/><path fill="#0C0F1D" d="m256.855 69.721-.211-1.017c-2.909.6-6.001 2.013-9.1 3.92-4.644 2.862-9.282 6.84-13.108 10.973-3.826 4.134-6.84 8.387-8.203 11.934-1.39 3.617-2.35 6.966-2.943 10.117-.452 2.48-.671 4.812-.671 6.995 0 4.395.875 8.203 2.414 11.418 2.309 4.832 6.099 8.316 10.518 10.562 4.419 2.247 9.473 3.286 14.422 3.286 3.678 0 7.299-.573 10.574-1.675 3.269-1.102 6.191-2.727 8.45-4.861l-.713-.756-.713.756c2.273 2.134 5.202 3.759 8.478 4.861 3.275 1.102 6.903 1.675 10.581 1.675 6.6 0 13.405-1.844 18.622-5.963a22.241 22.241 0 0 0 6.339-7.914c1.539-3.228 2.414-7.044 2.414-11.445 0-2.162-.212-4.473-.656-6.925-.593-3.158-1.553-6.507-2.944-10.124-.911-2.367-2.555-5.038-4.68-7.786-3.191-4.12-7.476-8.415-12.022-11.912-4.553-3.498-9.353-6.218-13.708-7.115l-.212 1.017.254-1.01c-3.678-.933-7.772-1.4-11.824-1.4-4.059 0-8.075.46-11.619 1.4l.268 1.01.269 1.01c3.324-.883 7.193-1.328 11.089-1.328 3.897 0 7.836.445 11.316 1.336h.021l.021.014c2.556.522 5.471 1.83 8.422 3.653 4.433 2.734 8.965 6.613 12.678 10.612 3.713 3.992 6.6 8.146 7.786 11.262 1.355 3.518 2.273 6.747 2.837 9.757.424 2.339.622 4.522.622 6.55 0 4.133-.812 7.623-2.21 10.548-2.096 4.388-5.506 7.539-9.586 9.623-4.08 2.085-8.831 3.067-13.497 3.067-3.466 0-6.875-.544-9.918-1.569-3.042-1.024-5.717-2.522-7.715-4.402l-.713-.671-.713.671c-1.984 1.88-4.645 3.378-7.687 4.402-3.036 1.025-6.445 1.569-9.911 1.569-6.212 0-12.572-1.753-17.309-5.504-2.372-1.873-4.355-4.239-5.746-7.157s-2.209-6.402-2.209-10.521c0-2.042.197-4.246.635-6.613.565-3.003 1.489-6.232 2.838-9.75.79-2.077 2.336-4.62 4.383-7.263 3.064-3.964 7.25-8.154 11.648-11.538 4.39-3.384 9.021-5.95 12.861-6.726h.028l.029-.014-.269-1.01-.007-.029Z"/><path fill="#0C0F1D" fill-rule="evenodd" d="M267.635 117.794c14.316 0 25.963 7.906 25.963 17.564 0 9.659-11.64 17.565-25.963 17.565s-25.963-7.836-25.963-17.565c0-9.729 11.57-17.564 25.963-17.564Z" clip-rule="evenodd"/><path fill="#0C0F1D" d="M267.636 117.794v1.038c6.967 0 13.27 1.929 17.767 4.981 2.252 1.526 4.045 3.321 5.273 5.278 1.221 1.957 1.885 4.063 1.885 6.267 0 2.219-.664 4.338-1.885 6.295-1.835 2.94-4.962 5.504-8.965 7.327-3.995 1.823-8.845 2.897-14.075 2.897-7.01 0-13.307-1.915-17.796-4.953-2.245-1.519-4.031-3.313-5.252-5.271-1.221-1.957-1.871-4.076-1.878-6.295 0-2.204.657-4.31 1.878-6.267 1.828-2.932 4.948-5.511 8.944-7.341 3.995-1.83 8.852-2.918 14.104-2.918v-2.084c-7.384 0-14.069 2.021-18.961 5.341-2.449 1.661-4.447 3.653-5.852 5.893-1.398 2.24-2.195 4.748-2.188 7.369 0 2.643.79 5.151 2.188 7.398 2.104 3.37 5.556 6.161 9.84 8.118 4.292 1.957 9.431 3.087 14.973 3.087 7.348 0 14.026-2.006 18.932-5.313 2.449-1.653 4.461-3.646 5.866-5.892 1.405-2.247 2.202-4.763 2.202-7.398 0-2.628-.797-5.129-2.202-7.369-2.111-3.363-5.57-6.161-9.862-8.125-4.292-1.964-9.423-3.102-14.944-3.109v1.039l.008.007Z"/><path fill="#98EFE4" fill-rule="evenodd" d="M268.574 112.961c14.394 0 25.963 7.906 25.963 17.564 0 9.659-11.569 17.565-25.963 17.565-14.393 0-25.963-7.836-25.963-17.565 0-9.729 11.641-17.564 25.963-17.564Z" clip-rule="evenodd"/><path fill="#0C0F1D" d="M268.574 112.961V114c7.003 0 13.307 1.928 17.796 4.981 2.245 1.526 4.031 3.32 5.252 5.277 1.221 1.958 1.871 4.063 1.878 6.267 0 2.226-.657 4.339-1.878 6.296-1.828 2.939-4.941 5.504-8.937 7.326-3.995 1.823-8.852 2.897-14.103 2.897-6.968 0-13.271-1.914-17.768-4.953-2.252-1.519-4.045-3.313-5.266-5.27-1.221-1.957-1.885-4.07-1.885-6.296 0-2.204.657-4.309 1.885-6.267 1.835-2.932 4.962-5.511 8.965-7.34 3.995-1.83 8.845-2.918 14.076-2.918v-2.085c-7.349 0-14.034 2.021-18.933 5.342-2.449 1.66-4.461 3.653-5.866 5.892-1.404 2.24-2.202 4.748-2.202 7.369 0 2.643.798 5.158 2.202 7.398 2.111 3.37 5.57 6.161 9.862 8.118 4.292 1.957 9.424 3.087 14.937 3.087 7.383 0 14.061-1.999 18.96-5.313 2.45-1.653 4.454-3.645 5.852-5.892 1.398-2.247 2.188-4.762 2.188-7.398 0-2.621-.79-5.129-2.188-7.369-2.104-3.363-5.548-6.161-9.84-8.132-4.292-1.964-9.431-3.109-14.972-3.109v1.039l-.015.014Z"/><path fill="#0C0F1D" fill-rule="evenodd" d="M258.741 78.185c-9.183 1.752-21.981 14.209-24.805 21.486-1.158 2.939-1.955 5.666-2.457 8.259-4.99 27.011 26.105 30.367 36.813 20.363 10.779 10.004 41.804 6.648 36.813-20.363-.431-2.585-1.228-5.32-2.386-8.259-2.824-7.277-15.622-19.734-24.805-21.486-6.001-1.54-13.448-1.54-19.166 0h-.007Z" clip-rule="evenodd"/><path fill="#0C0F1D" d="m258.74 78.185-.197-1.024c-2.478.473-5.09 1.632-7.695 3.2-3.91 2.353-7.8 5.646-11.005 9.058-1.602 1.703-3.035 3.441-4.207 5.115-1.172 1.675-2.096 3.279-2.668 4.755l-.014.043.021-.042c-1.179 2.988-1.991 5.786-2.513 8.436v.021-.014c-.374 2.034-.558 3.956-.558 5.758 0 3.646.734 6.818 2.04 9.496 1.949 4.027 5.153 6.924 8.874 8.789 3.727 1.865 7.976 2.727 12.141 2.727 3.099 0 6.148-.48 8.908-1.392 2.761-.918 5.224-2.268 7.137-4.055l-.713-.763-.706.763c1.927 1.787 4.398 3.137 7.165 4.055 2.76.919 5.817 1.392 8.916 1.392 5.541 0 11.259-1.526 15.65-4.938 2.195-1.71 4.044-3.893 5.343-6.571 1.299-2.678 2.033-5.843 2.033-9.489 0-1.802-.176-3.723-.557-5.765l-1.024.19 1.024-.169c-.452-2.678-1.264-5.476-2.443-8.464-.769-1.965-2.146-4.169-3.925-6.444-2.675-3.405-6.261-6.952-10.08-9.842-3.826-2.883-7.864-5.123-11.577-5.836l-.197 1.024.261-1.01c-3.099-.791-6.544-1.187-9.946-1.187-3.41 0-6.777.389-9.742 1.187l.268 1.003.269 1.004c2.746-.742 5.958-1.117 9.205-1.117s6.529.375 9.43 1.124h.029l.035.014c2.118.403 4.546 1.455 7.01 2.939 3.699 2.226 7.475 5.412 10.56 8.697 1.546 1.64 2.915 3.307 4.024 4.883 1.108 1.575 1.948 3.059 2.428 4.309 1.136 2.89 1.913 5.554 2.329 8.055v.014c.353 1.929.523 3.724.523 5.384 0 3.37-.671 6.203-1.822 8.577-1.729 3.561-4.538 6.126-7.92 7.829-3.381 1.695-7.32 2.508-11.195 2.508-2.88 0-5.725-.445-8.259-1.286-2.535-.841-4.751-2.07-6.403-3.603l-.713-.657-.706.664c-1.637 1.533-3.847 2.762-6.374 3.603-2.527.841-5.365 1.286-8.252 1.286-5.167 0-10.454-1.441-14.386-4.501-1.97-1.533-3.6-3.462-4.758-5.836-1.151-2.381-1.828-5.214-1.828-8.584 0-1.66.162-3.455.522-5.377l-1.024-.191 1.024.198c.494-2.522 1.271-5.186 2.407-8.075.643-1.675 1.927-3.76 3.621-5.921 2.549-3.25 6.029-6.698 9.699-9.468 3.664-2.776 7.525-4.86 10.709-5.454h.035l.036-.014-.269-1.004v-.007Z"/><path fill="#0C0F1D" fill-rule="evenodd" d="M280.581 132.49c2.676-.77 5.499 9.729-.07 13.714-.071.07-4.483 3.709-1.737 5.595 3.036 2.099 5.351 10.005 5.64 16.512.509 10.845-2.244 22.185-3.974 24.63.868-.071 7.666-1.187 7.666-1.47-.07-.346 2.534-16.653 2.534-20.574-.07-10.916.579-22.115.579-33.172 0-4.967-1.447-4.967-6.868-5.32-.508-.071-3.035-.212-3.395-.071l-.36.142-.015.014Zm-24.445 0c-2.676-.77-5.422 9.729.148 13.714.07.07 4.412 3.709 1.736 5.595-3.035 2.099-5.421 10.005-5.71 16.512-.509 10.845 2.244 22.185 4.051 24.63-.938-.071-7.736-1.187-7.666-1.47 0-.346-2.604-16.653-2.604-20.574.07-10.916-.579-22.115-.579-33.172 0-4.967 1.447-4.967 6.868-5.32.579-.071 3.113-.212 3.396-.071l.36.142v.014Z" clip-rule="evenodd"/><path fill="#F7F7F7" fill-rule="evenodd" d="M251.506 129.55c-2.894.347-6.798.071-10.342-.77-5.35-1.399-9.113-3.78-9.113-4.197-2.386 18.611-1.955 44.435 2.746 63.469.868 3.638 3.544 28.897 11.57 28.127 3.904-.417 2.746-18.476 2.746-39.255 0-19.246 1.157-40.796 2.386-47.374h.007Z" clip-rule="evenodd"/><path fill="#0C0F1D" d="m251.505 129.55-.127-1.031c-.77.092-1.624.141-2.534.141-2.316 0-4.984-.304-7.441-.89l-.24 1.017.262-1.01c-2.591-.678-4.808-1.597-6.353-2.388-.77-.396-1.377-.756-1.758-1.025a3.551 3.551 0 0 1-.374-.289l-.021-.021-.339.303.395-.226-.056-.077-.339.303.395-.226-.776.452h.896c-.007-.275-.085-.388-.12-.452l-.776.452h.896l-2.075-.134c-.925 7.221-1.426 15.495-1.426 24.044 0 13.65 1.277 27.986 4.2 39.806.092.374.226 1.152.395 2.162.593 3.547 1.596 10.061 3.332 15.749.875 2.847 1.92 5.496 3.247 7.51.671 1.01 1.412 1.865 2.28 2.494.861.629 1.878 1.025 2.972 1.018.148 0 .304-.008.459-.022h.014c.565-.056 1.073-.339 1.447-.713.332-.325.579-.721.791-1.159.367-.77.628-1.703.833-2.812.614-3.321.755-8.274.762-14.314 0-6.225-.162-13.58-.162-21.295 0-9.602.289-19.783.734-28.382.219-4.296.48-8.203.762-11.432.283-3.229.579-5.793.876-7.369l.261-1.399-1.412.17.127 1.031-1.024-.19c-.317 1.709-.621 4.309-.903 7.574-.847 9.785-1.497 25.527-1.497 39.99 0 7.743.163 15.105.163 21.295 0 5.221-.12 9.623-.523 12.675-.197 1.519-.487 2.706-.804 3.419-.156.361-.318.594-.438.707-.12.113-.162.113-.212.127l.113 1.039-.099-1.039a3.234 3.234 0 0 1-.261.014c-.685 0-1.32-.254-2.005-.819-.593-.495-1.193-1.223-1.75-2.141-.989-1.611-1.871-3.773-2.612-6.147-1.122-3.561-1.955-7.588-2.57-10.98a308.965 308.965 0 0 1-.762-4.479c-.205-1.251-.36-2.19-.501-2.777-2.859-11.594-4.137-25.802-4.137-39.318 0-8.465.501-16.661 1.412-23.775l-1.031-.135h-1.037c0 .212.049.354.099.46.091.205.176.303.261.395.155.17.317.304.515.46.346.261.791.551 1.355.869 1.688.953 4.377 2.162 7.667 3.024h.021c2.626.621 5.421.946 7.92.946.981 0 1.92-.049 2.781-.155l-.127-1.032-.021.007Z"/><path fill="#2F3759" fill-rule="evenodd" d="M268.503 22.574c18.678-.085 32.189 3.638 42.22 9.142a17.205 17.205 0 0 1-.663-1.47C303.749 16.682 293.273.715 268.503 1.054c-24.77-.346-35.245 15.628-41.556 29.194-.191.452-.374.897-.664 1.47 10.031-5.505 23.549-9.228 42.22-9.143Z" clip-rule="evenodd"/><path fill="#0C0F1D" d="M268.504 23.627h.629c18.212 0 31.342 3.674 41.083 9.015.402.219.911.155 1.235-.17.325-.325.41-.826.205-1.236-.275-.53-.445-.94-.628-1.392l-.014-.042C307.865 23.033 303.658 15.6 297.1 9.82 290.55 4.048 281.613-.007 269.281 0h-.798a1.054 1.054 0 0 0 .014 2.105A1.053 1.053 0 0 0 268.511 0h-.797c-12.332-.007-21.269 4.048-27.82 9.828-6.558 5.772-10.758 13.212-13.913 19.98l-.014.043c-.191.452-.36.862-.629 1.392-.211.41-.127.912.205 1.237.332.325.833.388 1.236.169 9.741-5.341 22.878-9.015 41.083-9.015h.628c.283 0 .544-.106.748-.304a1.053 1.053 0 0 0 0-1.491 1.042 1.042 0 0 0-1.482 0 1.058 1.058 0 0 0-.311.749 1.051 1.051 0 0 0 1.059 1.046 1.05 1.05 0 0 0 1.052-1.053c0-.58-.466-1.053-1.045-1.053h-.635c-18.487 0-32.006 3.738-42.1 9.277l.508.925.932.481c.311-.608.515-1.095.699-1.547l-.967-.403.953.445c3.099-6.655 7.179-13.82 13.391-19.288 6.219-5.469 14.556-9.298 26.429-9.305h.769l.014-1.053V0v1.053l.014 1.052h.77c11.873.008 20.21 3.837 26.429 9.306 6.219 5.468 10.299 12.632 13.391 19.288l.953-.445-.967.403c.19.452.388.94.698 1.547l.932-.48.508-.926c-10.094-5.54-23.605-9.277-42.099-9.277h-.636a1.054 1.054 0 0 0 .007 2.105Z"/><path fill="#2F3759" fill-rule="evenodd" d="M268.433 10.655c-15.473 0-26.634 2.967-36.17 8.45-7.815 4.493-11.055 22.496-7.2 24.34 10.715-6.006 23.344-10.096 43.434-10.04l-.064-22.75Z" clip-rule="evenodd"/><path fill="#0C0F1D" d="M268.432 10.655V9.616c-15.6 0-26.986 3.003-36.685 8.591-1.561.898-2.902 2.24-4.059 3.816-1.723 2.374-3.036 5.292-3.925 8.23-.89 2.94-1.363 5.886-1.363 8.338 0 1.314.135 2.487.445 3.476.162.495.367.947.65 1.35a2.96 2.96 0 0 0 1.115.968c.303.148.663.134.96-.029 5.252-2.946 10.948-5.412 17.803-7.157 6.847-1.738 14.852-2.748 24.699-2.755h.424a1.034 1.034 0 0 0 1.044-1.046l-.063-22.75a1.04 1.04 0 0 0-1.038-1.04v1.04h-1.037l.063 22.75h1.038v-1.046h-.431c-9.995 0-18.177 1.025-25.215 2.82-7.037 1.787-12.925 4.338-18.304 7.354l.509.912.451-.94a.836.836 0 0 1-.317-.297c-.184-.254-.381-.72-.508-1.342-.135-.622-.205-1.399-.198-2.275 0-2.918.783-6.896 2.245-10.464.727-1.787 1.623-3.469 2.647-4.875 1.023-1.406 2.181-2.536 3.409-3.236 9.368-5.384 20.302-8.309 35.648-8.309v-1.038l-.007-.007Z"/><path fill="#2F3759" fill-rule="evenodd" d="M268.567 10.655c15.474 0 26.634 2.967 36.171 8.45 7.814 4.493 11.054 22.496 7.2 24.34-10.716-6.006-23.344-10.096-43.434-10.04l.063-22.75Z" clip-rule="evenodd"/><path fill="#0C0F1D" d="M268.567 10.655v1.038c15.346 0 26.28 2.925 35.648 8.309 1.228.707 2.386 1.83 3.409 3.236 1.539 2.113 2.782 4.847 3.615 7.61.84 2.755 1.277 5.546 1.277 7.729 0 1.166-.127 2.155-.346 2.84-.106.34-.24.608-.36.777-.127.177-.233.255-.317.297l.451.94.509-.912c-5.379-3.017-11.267-5.567-18.304-7.355-7.038-1.787-15.22-2.819-25.215-2.819h-.431v1.039h1.045l.064-22.75h-2.076l-.063 22.743a1.035 1.035 0 0 0 1.044 1.046h.424c9.854 0 17.852 1.01 24.699 2.755 6.848 1.738 12.544 4.21 17.803 7.157.297.163.657.177.96.028.466-.219.833-.572 1.116-.968.423-.6.684-1.32.854-2.126.169-.813.247-1.717.247-2.7 0-3.27-.84-7.425-2.4-11.247-.784-1.915-1.744-3.738-2.894-5.32-1.151-1.576-2.492-2.918-4.059-3.816-9.707-5.588-21.086-8.591-36.686-8.591a1.04 1.04 0 0 0-1.038 1.038h1.038l-.014.022Z"/><path fill="#F7F7F7" fill-rule="evenodd" d="M285.354 129.55c2.894.347 6.868.071 10.412-.77 5.28-1.399 9.113-3.78 9.042-4.197 2.457 18.611 1.956 44.435-2.675 63.469-.868 3.638-3.544 28.897-11.57 28.127-3.974-.417-2.824-18.476-2.746-39.255 0-19.246-1.228-40.796-2.456-47.374h-.007Z" clip-rule="evenodd"/><path fill="#0C0F1D" d="m285.354 129.55-.127 1.032c.868.106 1.807.155 2.795.155 2.52 0 5.351-.325 7.984-.946h.028a34.723 34.723 0 0 0 6.685-2.523c.84-.424 1.511-.819 2.005-1.165.247-.177.452-.333.628-.502.092-.085.177-.177.268-.304.043-.063.092-.141.134-.247.043-.106.092-.247.092-.445v-.156l-2.075.276c.939 7.122 1.447 15.332 1.447 23.81 0 13.502-1.285 27.696-4.101 39.276-.12.516-.254 1.293-.424 2.318-.586 3.554-1.595 9.997-3.268 15.487-.833 2.741-1.843 5.243-2.993 6.974-.572.869-1.172 1.533-1.765 1.957-.593.424-1.151.621-1.751.621-.084 0-.169 0-.261-.014h.007c-.063-.007-.106-.014-.226-.127a2.295 2.295 0 0 1-.381-.558c-.247-.488-.48-1.251-.67-2.226-.29-1.469-.48-3.412-.593-5.723-.113-2.31-.156-4.981-.156-7.92 0-6.267.184-13.763.212-21.662 0-9.644-.311-19.861-.769-28.495-.233-4.317-.502-8.238-.791-11.502-.289-3.264-.6-5.857-.918-7.567l-1.023.191-1.024.19c.297 1.576.6 4.148.89 7.37.861 9.693 1.553 25.414 1.553 39.813-.029 7.871-.212 15.36-.212 21.662 0 5.158.12 9.517.565 12.697.225 1.596.522 2.896.988 3.914.233.509.515.961.896 1.321.374.367.89.636 1.447.692h.015c.155.015.303.022.458.022 1.25 0 2.393-.509 3.339-1.3.833-.693 1.546-1.604 2.196-2.657 1.129-1.844 2.047-4.14 2.823-6.613 1.165-3.709 2.012-7.8 2.633-11.234.311-1.717.565-3.264.77-4.508.204-1.236.367-2.19.473-2.635 2.873-11.806 4.157-26.128 4.157-39.764 0-8.563-.508-16.851-1.461-24.086l-2.061.276.946-.127h-.953v.127l.953-.127h-.953.918l-.847-.354a.884.884 0 0 0-.071.354h.918l-.847-.354.536.226-.445-.388s-.035.028-.091.162l.536.226-.445-.388-.014.014a2.376 2.376 0 0 1-.296.233c-.537.389-1.61 1.01-3.015 1.639a33.154 33.154 0 0 1-5.11 1.809l.268 1.01-.24-1.017a33.57 33.57 0 0 1-7.504.89 21.68 21.68 0 0 1-2.548-.141l-1.412-.17.261 1.399 1.024-.19-.007-.008Z"/><path fill="#E9CCFF" d="M323.444 69.212a9.026 9.026 0 0 1-1.991 2.084 8.699 8.699 0 0 1-2.534 1.336c-5.252 1.76-15.826 4.74-20.817 5.857-6.466 1.441-7.991-1.187-9.184-2.31-.903-.862-6.042-8.705-9.72-14.265-2.386-3.053-3.967-4.642-11.04-4.536-7.667-.043-9.276 2.826-10.907 4.705-3.713 5.554-8.717 13.24-9.607 14.096-1.193 1.13-2.718 3.751-9.184 2.31-4.99-1.116-15.565-4.09-20.817-5.857a9 9 0 0 1-4.525-3.42 9.169 9.169 0 0 1-1.581-5.991c.219-2.53.572-5.9.869-8.683.296-2.777 1.461-7.433 3.31-9.49a12.757 12.757 0 0 1 3.593-2.776 12.38 12.38 0 0 1 4.306-1.328c7.137-.841 22.229-2.219 44.959-2.219 22.73 0 37.349 1.357 44.359 2.197 3.028.368 5.816 1.83 7.885 4.113.932 1.031 1.687 2.713 2.252 4.486.557 1.766.924 3.632 1.073 5.024.289 2.776.649 6.14.868 8.669a9.262 9.262 0 0 1-1.581 5.998h.014Z"/><path fill="#0C0F1D" d="m323.445 69.212-.861-.586a7.973 7.973 0 0 1-1.758 1.844 7.96 7.96 0 0 1-2.231 1.18c-5.188 1.745-15.791 4.726-20.711 5.829-1.271.282-2.315.395-3.184.395-1.665 0-2.626-.395-3.338-.862-.713-.466-1.158-1.045-1.723-1.59 0 0-.063-.063-.134-.148-.282-.339-.833-1.088-1.504-2.056-2.033-2.925-5.343-7.962-7.934-11.877l-.021-.035-.028-.035c-.586-.75-1.144-1.441-1.772-2.063a8.694 8.694 0 0 0-3.586-2.176c-1.511-.48-3.36-.707-5.88-.707h-.636l.015 1.039v-1.039h-.177c-1.948 0-3.536.184-4.864.502-1.99.473-3.395 1.272-4.418 2.14-1.024.87-1.673 1.781-2.238 2.424l-.043.05-.035.056c-1.856 2.777-4.038 6.09-5.859 8.803a192.52 192.52 0 0 1-2.379 3.484c-.324.459-.6.84-.819 1.13-.105.141-.204.261-.275.353-.07.085-.127.149-.134.149-.565.544-1.009 1.116-1.722 1.582-.706.46-1.673.855-3.339.862-.862 0-1.913-.113-3.184-.395-4.92-1.103-15.523-4.084-20.711-5.83a7.866 7.866 0 0 1-3.995-3.023 8.132 8.132 0 0 1-1.433-4.607 7.8 7.8 0 0 1 .035-.7c.219-2.522.572-5.885.868-8.669a26.198 26.198 0 0 1 1.031-4.811c.529-1.689 1.27-3.271 2.019-4.09a11.719 11.719 0 0 1 3.296-2.551 11.316 11.316 0 0 1 3.946-1.223c7.094-.84 22.151-2.211 44.839-2.211s37.265 1.356 44.239 2.19a11.676 11.676 0 0 1 7.235 3.78c.756.82 1.504 2.402 2.033 4.105.537 1.688.89 3.504 1.031 4.819.289 2.776.649 6.14.868 8.648.021.233.028.466.028.692a8.107 8.107 0 0 1-1.433 4.62l.862.594.854.594c1.179-1.71 1.8-3.73 1.8-5.801 0-.29-.014-.58-.035-.87-.219-2.55-.579-5.913-.869-8.69-.155-1.476-.536-3.384-1.115-5.228-.593-1.851-1.362-3.631-2.471-4.868a13.77 13.77 0 0 0-8.534-4.451c-7.052-.848-21.862-2.204-44.486-2.204s-37.907 1.377-45.079 2.225a13.43 13.43 0 0 0-4.666 1.441 13.65 13.65 0 0 0-3.889 3.003c-1.109 1.237-1.871 3.01-2.464 4.854-.586 1.844-.96 3.752-1.115 5.214-.297 2.784-.65 6.161-.868 8.705-.029.29-.043.586-.043.89 0 2.07.628 4.084 1.793 5.787a10.017 10.017 0 0 0 5.047 3.822c5.309 1.78 15.869 4.755 20.923 5.886 1.398.31 2.591.445 3.636.445 2.004 0 3.459-.523 4.482-1.201 1.017-.672 1.624-1.47 2.005-1.816.106-.106.198-.205.296-.332.367-.453.904-1.187 1.582-2.17 2.025-2.917 5.273-7.877 7.877-11.777l-.868-.58.784.686c.868-1.01 1.567-2.021 2.908-2.848.678-.41 1.518-.784 2.654-1.06 1.137-.275 2.563-.445 4.377-.445h.797c1.596 0 2.859.1 3.883.276 1.539.275 2.499.713 3.325 1.321.826.608 1.532 1.441 2.386 2.544l.818-.643-.868.572a1222.63 1222.63 0 0 0 5.909 8.902 262.03 262.03 0 0 0 2.449 3.582c.339.48.635.884.882 1.209.128.162.233.303.339.424.106.127.191.226.304.332.381.353.988 1.144 2.005 1.815 1.023.686 2.477 1.209 4.482 1.202 1.045 0 2.238-.135 3.635-.446 5.055-1.13 15.615-4.105 20.923-5.885a9.873 9.873 0 0 0 2.831-1.49 10.11 10.11 0 0 0 2.224-2.325l-.855-.587h.029Z"/><path fill="#0C0F1D" d="M294.699 75.112c-1.588 0-1.977-.41-2.69-1.159a9.72 9.72 0 0 0-.473-.48c-.945-1.11-5.386-7.836-8.054-11.87l-3.318-.99a3.005 3.005 0 0 0-.176-.24c-3.226-4.133-7.426-4.119-11.203-4.119h-.797c-7.899 0-10.194 1.604-12.41 4.275-.134.162-.261.318-.388.466-.106.12-.198.248-.29.375-.826 1.236-2.442 1.151-3.339 2.5-2.435 3.668-5.753 8.67-6.536 9.603-.142.141-.297.303-.466.473-.713.749-1.101 1.159-2.69 1.159-.741 0-1.623-.113-2.619-.332-4.807-1.074-15.318-4.035-20.443-5.751a5.302 5.302 0 0 1-2.64-1.993 5.312 5.312 0 0 1-.938-3.017c0-.148 0-.29.021-.438.219-2.543.579-5.949.861-8.627.303-2.805 1.419-6.295 2.351-7.32a8.906 8.906 0 0 1 2.534-1.957 8.647 8.647 0 0 1 3.049-.946c6.932-.82 21.94-2.19 44.536-2.19 22.595 0 37.172 1.363 43.928 2.176a9.044 9.044 0 0 1 5.59 2.918c.346.381.911 1.398 1.441 3.08.43 1.37.776 2.968.91 4.267l.092.89c.268 2.566.579 5.476.769 7.695a5.367 5.367 0 0 1-.917 3.476 5.414 5.414 0 0 1-1.158 1.215c-.452.34-.946.6-1.468.777-5.132 1.724-15.643 4.678-20.457 5.759-.989.219-1.871.332-2.612.332v-.007Z"/><path fill="#98EFE4" fill-rule="evenodd" d="M256.567 60.762c-11.428 2.24-27.339 17.706-30.883 26.728-1.376 3.71-2.386 7.136-2.965 10.288-6.219 33.588 32.401 37.714 45.778 25.329 13.306 12.385 51.926 8.259 45.707-25.33-.579-3.15-1.518-6.577-2.965-10.287-3.543-9.03-19.454-24.488-30.876-26.728-7.447-1.886-16.709-1.886-23.796 0Z" clip-rule="evenodd"/><path fill="#0C0F1D" d="m256.567 60.762-.197-1.024c-3.036.593-6.262 2.035-9.488 3.984-4.835 2.926-9.656 7.002-13.638 11.22-3.974 4.232-7.108 8.57-8.527 12.167v.021c-1.398 3.752-2.428 7.228-3.021 10.464-.466 2.529-.692 4.903-.692 7.129 0 4.5.911 8.393 2.506 11.686 2.393 4.939 6.325 8.5 10.913 10.789 4.588 2.296 9.84 3.356 14.979 3.356 3.826 0 7.596-.587 10.998-1.71 3.403-1.123 6.445-2.784 8.803-4.967l-.706-.763-.706.763c2.344 2.183 5.379 3.844 8.774 4.967 3.396 1.123 7.158 1.71 10.977 1.71 6.84 0 13.892-1.88 19.292-6.076 2.697-2.099 4.977-4.784 6.572-8.076 1.596-3.293 2.506-7.186 2.506-11.686 0-2.226-.219-4.6-.691-7.13-.593-3.214-1.553-6.704-3.022-10.477-.946-2.41-2.654-5.13-4.863-7.935-3.318-4.21-7.765-8.605-12.502-12.187-4.736-3.575-9.741-6.352-14.287-7.256l-.198 1.024.254-1.01c-3.826-.968-8.075-1.449-12.29-1.449-4.214 0-8.379.48-12.028 1.456l.268 1.01.268 1.01c3.438-.918 7.441-1.384 11.492-1.384 4.052 0 8.154.466 11.775 1.385h.028l.028.014c2.683.522 5.725 1.858 8.81 3.723 4.624 2.79 9.339 6.769 13.2 10.866 3.862 4.091 6.869 8.33 8.104 11.503 1.426 3.646 2.344 7.009 2.908 10.096.445 2.417.657 4.663.657 6.755 0 4.218-.847 7.786-2.294 10.775-2.175 4.479-5.718 7.708-9.968 9.834-4.242 2.127-9.183 3.138-14.026 3.138-3.607 0-7.158-.559-10.327-1.604-3.17-1.046-5.944-2.586-8.012-4.515l-.706-.657-.706.657c-2.082 1.929-4.871 3.469-8.04 4.515-3.177 1.045-6.735 1.611-10.349 1.604-6.473 0-13.101-1.795-18.036-5.639-2.47-1.921-4.531-4.345-5.978-7.333-1.448-2.989-2.295-6.557-2.295-10.775 0-2.092.205-4.338.657-6.755.565-3.073 1.56-6.443 2.915-10.117l-.974-.36.967.381c.826-2.106 2.435-4.706 4.56-7.404 3.191-4.056 7.539-8.352 12.121-11.814 4.574-3.469 9.402-6.09 13.433-6.867h.035l.035-.014-.268-1.01v-.008Z"/><path fill="#0C0F1D" d="M269.541 123.107v-16.724h-2.082v16.724m-30.771-41.064c-11.21 0-20.238 2.522-26.471 5.045-6.233 2.522-9.678 5.051-9.735 5.094l1.236 1.681c.31-.233 13.525-9.736 34.963-9.736v-2.084h.007Zm-4.573 27.618c-9.988 3.13-16.92 8.988-21.339 14.053-4.419 5.066-6.353 9.348-6.381 9.419l1.898.854c.085-.197 2.005-4.324 6.255-9.128 4.249-4.804 10.8-10.266 20.196-13.205l-.622-1.993h-.007Zm1.8-13.833c-12.721.487-22.646 4.04-29.387 7.482-6.749 3.44-10.32 6.768-10.37 6.818l1.419 1.526c.162-.156 3.678-3.363 10.2-6.642 6.523-3.278 16.038-6.634 28.215-7.1l-.077-2.085Zm66.397-11.701c10.892 0 19.652 2.452 25.687 4.89a56.762 56.762 0 0 1 6.925 3.348 34.3 34.3 0 0 1 1.779 1.096c.198.127.346.233.445.296l.106.078.021.014 1.235-1.674c-.056-.043-3.494-2.572-9.734-5.094-6.233-2.523-15.262-5.045-26.471-5.045v2.084l.007.007Zm3.952 27.52c9.536 2.988 16.151 8.577 20.393 13.438a46.389 46.389 0 0 1 4.631 6.295c.494.813.854 1.47 1.087 1.922.12.226.205.403.261.516l.064.127.014.028 1.899-.848c-.029-.063-1.963-4.345-6.382-9.418-4.419-5.066-11.351-10.923-21.339-14.053l-.621 1.993h-.007Zm-1.248-13.735c12.374.473 21.995 3.928 28.525 7.256 3.261 1.667 5.753 3.299 7.419 4.508a43.79 43.79 0 0 1 1.878 1.448c.204.17.36.304.466.396l.113.099.028.021 1.419-1.519c-.057-.05-3.629-3.378-10.37-6.818-6.741-3.441-16.666-6.995-29.387-7.483l-.077 2.085-.014.007Zm-60.229-22.348c.41.014.777.17 1.038.431s.41.629.388 1.003c-.014.41-.169.792-.451 1.053a1.47 1.47 0 0 1-1.08.374 1.492 1.492 0 0 1-1.003-.445 1.446 1.446 0 0 1-.423-1.095 1.33 1.33 0 0 1 .515-.982 1.58 1.58 0 0 1 1.016-.346v.007Zm11.288 6.373c.437.014.811.212 1.058.487.247.276.382.63.367.997a1.422 1.422 0 0 1-.451 1.017 1.49 1.49 0 0 1-1.08.36 1.554 1.554 0 0 1-1.003-.424 1.371 1.371 0 0 1-.423-1.06c.021-.395.219-.734.494-.974s.635-.417 1.045-.403h-.007Zm-17.147 8.019c.41.014.791.163 1.052.438a1.4 1.4 0 0 1 .374 1.046 1.426 1.426 0 0 1-.444.968 1.466 1.466 0 0 1-1.095.41c-.409-.014-.755-.212-1.009-.474-.254-.261-.431-.614-.417-1.01.015-.424.219-.784.502-1.025.289-.24.656-.367 1.03-.353h.007Zm57.291-14.392a1.53 1.53 0 0 0-1.038.431 1.327 1.327 0 0 0-.388 1.003c.014.41.169.792.452 1.053.282.261.67.396 1.08.374a1.492 1.492 0 0 0 1.002-.445 1.45 1.45 0 0 0 .424-1.095 1.327 1.327 0 0 0-.516-.982 1.58 1.58 0 0 0-1.016-.346v.007Zm-11.294 6.373a1.485 1.485 0 0 0-1.059.487 1.41 1.41 0 0 0-.367.997c.014.395.169.763.452 1.017.282.254.67.382 1.08.36.381-.014.734-.17 1.002-.424s.445-.635.424-1.06a1.397 1.397 0 0 0-.494-.974c-.276-.24-.636-.417-1.045-.403h.007Zm17.146 8.019c-.41.014-.791.163-1.052.438a1.4 1.4 0 0 0-.374 1.046c.014.367.176.706.444.968.269.261.657.43 1.095.41.409-.014.755-.212 1.009-.474.254-.261.431-.614.417-1.01a1.409 1.409 0 0 0-.502-1.025 1.524 1.524 0 0 0-1.03-.353h-.007Z"/><path fill="#fff" d="m236.252 67.17 17.386-16.83-1.447-1.497-17.386 16.822m1.001-6.267 9.361-9.057-1.447-1.498-9.361 9.058m56.219 5.603 13.596-13.163-1.447-1.498-13.596 13.163m-2.789-2.608 9.36-9.057-1.447-1.498-9.36 9.058"/><path fill="#98EFE4" fill-rule="evenodd" d="M268.503 70.307c-4.334 0-8.795-3.349-8.795-3.349.134-.416 1.56-2.26 2.075-3.504.882-1.978-2.739-3.194-4.744-2.784-4.32.509 3.982-4.288 11.471-4.416 7.49.128 15.791 4.925 11.471 4.416-2.005-.41-5.633.813-4.744 2.784.516 1.25 1.942 3.088 2.076 3.504 0 0-4.462 3.35-8.796 3.35h-.014Z" clip-rule="evenodd"/><path fill="#0C0F1D" d="M268.503 70.307V69.27c-1.899 0-3.981-.763-5.555-1.562a20.091 20.091 0 0 1-1.913-1.095c-.233-.148-.41-.275-.53-.353l-.134-.099-.028-.021-.621.827.988.317-.487-.155.473.198.014-.043-.487-.155.473.198-.156-.064.156.07s.035-.063.084-.14c.177-.297.558-.848.939-1.442.381-.6.784-1.25 1.045-1.893l-.96-.396.953.424c.148-.325.226-.678.226-1.024 0-.636-.276-1.209-.636-1.618-.55-.622-1.27-1.004-2.04-1.28a7.413 7.413 0 0 0-2.4-.41c-.36 0-.713.03-1.051.1l.204 1.024-.12-1.031a4.12 4.12 0 0 1-.437.028h-.135l-.049.276.099-.262-.05-.014-.049.276.099-.262-.261.685.55-.473a.79.79 0 0 0-.289-.212l-.261.685.55-.473-.656.565h.868a.917.917 0 0 0-.212-.565l-.656.565h.868-.67l.564.382s.092-.127.099-.382h-.671l.565.382-.127-.085.12.099-.127-.099.12.099s.134-.141.346-.283c.381-.268 1.009-.621 1.793-.975 2.358-1.08 6.141-2.232 9.6-2.282l-.014-1.038-.014 1.038c2.859.043 5.937.834 8.245 1.717 1.158.438 2.125.912 2.767 1.293.318.19.551.367.664.466l.056.057h.007l.099-.07-.106.07h.007l.099-.07-.106.07.572-.382h-.671c0 .255.085.354.099.382l.572-.382h-.671.868l-.677-.544a.882.882 0 0 0-.191.544h.868l-.677-.544.522.417-.169-.664s-.17.035-.353.247l.522.417-.169-.664.021.078-.014-.078.021.078-.014-.078s-.057.007-.134.007a4.15 4.15 0 0 1-.438-.028l-.12 1.031.205-1.024a5.164 5.164 0 0 0-1.052-.099 7.21 7.21 0 0 0-3.148.728c-.48.24-.932.544-1.292.96-.36.41-.635.983-.635 1.619 0 .346.077.7.225 1.024l.953-.424-.96.396c.318.763.826 1.554 1.271 2.24.226.339.431.65.579.883.078.12.134.219.176.282l.036.064.021-.007h-.021l.473-.19-.495.154.015.043.473-.198-.495.156.989-.318-.622-.834c-.098.078-1.2.883-2.76 1.653-1.553.77-3.564 1.491-5.407 1.484v2.084c2.436 0 4.751-.911 6.494-1.787 1.737-.876 2.895-1.745 2.93-1.767l.593-.445-.226-.706c-.064-.191-.127-.29-.191-.417-.12-.205-.268-.431-.437-.693-.254-.388-.558-.833-.826-1.278a8.42 8.42 0 0 1-.643-1.202v-.014l-.014-.02c-.042-.093-.042-.142-.042-.17 0-.05.007-.114.127-.255.17-.205.607-.487 1.151-.671a5.439 5.439 0 0 1 1.715-.297c.24 0 .466.021.642.057h.043l.042.014c.247.028.473.042.685.042.296 0 .55-.014.882-.148.163-.07.353-.184.523-.389a1.23 1.23 0 0 0 .268-.763 1.31 1.31 0 0 0-.254-.777c-.226-.318-.473-.523-.777-.749-.529-.381-1.235-.777-2.103-1.18-2.598-1.2-6.608-2.459-10.554-2.53h-.035c-3.205.057-6.459.905-8.958 1.859-1.249.48-2.308.982-3.092 1.455-.395.24-.72.467-.995.714a2.554 2.554 0 0 0-.381.431 1.4 1.4 0 0 0-.254.777c0 .255.099.558.268.763.261.311.536.41.755.467.226.056.431.07.65.07.212 0 .43-.014.684-.042h.043l.042-.014c.177-.036.403-.057.643-.057.72 0 1.609.198 2.216.502.304.148.537.325.65.466.12.142.127.205.127.255 0 .035 0 .084-.043.176v.014l-.014.014c-.198.488-.656 1.244-1.087 1.887-.212.325-.424.636-.593.904-.085.135-.162.255-.233.375-.07.127-.127.226-.19.417l-.226.706.593.445s1.193.89 2.929 1.767c1.744.876 4.059 1.78 6.494 1.787v-1.038l-.049-.015Zm-125.12 263.086-.819 1.872c12.078 5.292 23.161 10.634 33.453 15.728h4.603c-11.33-5.638-23.662-11.651-37.244-17.6h.007Zm251.054 1.879-.819-1.872c-13.581 5.949-25.906 11.962-37.243 17.6h4.602c10.293-5.094 21.382-10.436 33.453-15.728h.007Zm-62.071-111.901h-1.298v13.001h-2.591v10.393h-2.598v5.2h-7.793v-10.4h-2.598v-10.393h-2.597v-7.801h-2.598v-7.793h5.195v7.793h2.598v7.801h2.598v12.993h2.598v-7.793h2.597v-13.001h2.598v-7.793h7.786v7.793h2.598v13.001h2.597v7.793h2.598v-12.993h2.598v-7.801h2.591v-7.793h5.195v7.793h-2.598v7.801h-2.597v10.393h-2.591v10.4h-7.793v-5.2h-2.598v-10.393h-2.598v-13.001h-1.299Z"/><path fill="#EAFF7E" fill-rule="evenodd" stroke="#0C0F1D" stroke-linecap="round" stroke-linejoin="round" stroke-width="2" d="M325.122 40c0 5.946 4.817 10.851 10.878 11.595v.148c-5.595.595-10.101 4.757-10.723 10.257h-.155c-.622-5.797-5.906-10.405-12.122-10.405 6.682 0 12.122-5.203 12.122-11.595Z" clip-rule="evenodd"/></g><defs><clipPath id="a"><path fill="#fff" d="M0 0h537v351H0z"/></clipPath></defs></svg>