<svg xmlns="http://www.w3.org/2000/svg" fill="none" viewBox="0 0 947 361"><path fill="#F7F7F7" fill-rule="evenodd" d="M745.102 344.841c-27.302-49.078-30.892-67.835-38.123-72.832-6.54-4.607-64.515 7.625-77.226 6.346l-3.611-.43c-3.31-3.118-23.642-18.917-23.642-18.917-17.461-24.564-73.906-46.08-129.001-46.08-55.094 0-111.839 21.516-129.3 46.08 0 0-20.032 15.799-23.342 18.917l-3.611.43c-12.711 1.279-70.686-10.953-77.226-6.346-7.231 4.997-10.821 23.754-38.124 72.832" clip-rule="evenodd"/><path fill="#0C0F1D" d="M746.412 344.111c-13.621-24.493-21.321-41.392-26.532-52.845-2.61-5.726-4.59-10.083-6.42-13.401-1.831-3.308-3.501-5.616-5.631-7.095h.01c-.88-.59-1.9-.849-3.15-1.049-1.24-.18-2.71-.26-4.401-.26-4.16 0-9.65.48-15.791 1.179-9.211 1.059-19.862 2.638-29.472 3.947-4.801.66-9.341 1.25-13.302 1.669-3.95.43-7.32.68-9.74.68-.82 0-1.52-.03-2.091-.09l-.15 1.489.18-1.489-3.61-.43-.18 1.489 1.03-1.089a56.05 56.05 0 0 0-2.03-1.769c-3.08-2.578-8.501-6.885-13.161-10.553-4.66-3.667-8.551-6.695-8.551-6.695l-.92 1.179 1.22-.87c-4.53-6.365-11.471-12.411-20.191-17.958-13.082-8.314-30.183-15.479-49.215-20.596-19.031-5.107-40.003-8.155-60.815-8.155-27.742 0-55.844 5.407-79.276 13.921-11.711 4.257-22.262 9.284-31.003 14.83-8.751 5.547-15.711 11.593-20.242 17.958l1.22.87-.93-1.179s-5.01 3.957-10.441 8.294a864.217 864.217 0 0 0-7.88 6.366c-1.18.959-2.231 1.839-3.111 2.578-.88.74-1.56 1.329-2.01 1.759l1.03 1.089-.18-1.489-3.61.43.18 1.489-.15-1.489c-.57.06-1.27.09-2.09.09-3.23 0-8.141-.46-13.881-1.159-8.621-1.05-19.142-2.629-29.033-3.948-9.901-1.319-19.151-2.378-25.392-2.378-1.69 0-3.16.08-4.4.26-1.24.2-2.26.449-3.151 1.049h.01c-2.13 1.469-3.8 3.788-5.63 7.085-2.74 4.967-5.841 12.312-10.851 23.045-5 10.723-11.891 24.833-22.102 43.201l2.62 1.459c13.672-24.583 21.432-41.602 26.643-53.054 2.61-5.727 4.58-10.054 6.32-13.202 1.73-3.148 3.22-5.056 4.711-6.076h.02c.16-.13.85-.399 1.86-.539 1.02-.15 2.36-.23 3.96-.23 3.94 0 9.361.46 15.451 1.159 9.131 1.049 19.782 2.628 29.413 3.938 4.82.659 9.381 1.249 13.381 1.678 4.01.43 7.441.7 10.061.7.89 0 1.68-.03 2.39-.1l4.12-.49.36-.339c.37-.35 1.041-.93 1.891-1.659 3-2.539 8.35-6.836 12.931-10.493 2.29-1.829 4.4-3.498 5.93-4.717l2.49-1.969.17-.13.12-.18c4.201-5.916 10.881-11.772 19.402-17.168 12.781-8.105 29.703-15.19 48.544-20.227 18.842-5.046 39.613-8.054 60.135-8.054 27.353 0 55.085 5.346 78.097 13.74 11.501 4.198 21.832 9.144 30.322 14.541 8.501 5.396 15.152 11.252 19.352 17.168l.13.18.17.14s.32.25.88.68c1.97 1.529 6.931 5.406 11.761 9.233 2.41 1.919 4.801 3.818 6.751 5.407.98.799 1.85 1.509 2.56 2.109.71.599 1.26 1.079 1.59 1.389l.36.339 4.12.49c.71.07 1.501.1 2.391.1 3.49 0 8.45-.48 14.241-1.179 8.681-1.06 19.211-2.639 29.072-3.948 9.851-1.309 19.072-2.358 24.992-2.358 1.591 0 2.941.08 3.961.23 1.01.14 1.7.409 1.86.539h.01c1.49 1.03 2.98 2.938 4.71 6.086 2.601 4.717 5.741 12.092 10.761 22.865 5.021 10.773 11.951 24.954 22.202 43.391l2.62-1.459v.05Z"/><path fill="#F7F7F7" fill-rule="evenodd" d="M745.103 344.841H201.897c-1.97 3.537-3.76 9.374-5.34 16.159h553.876c-1.58-6.775-3.37-12.622-5.34-16.159h.01Z" clip-rule="evenodd"/><path fill="#0C0F1D" d="M751.924 360.78c-.8-3.448-1.66-6.665-2.57-9.484-.92-2.828-1.88-5.266-2.951-7.175l-2.62 1.459c.91 1.639 1.84 3.928 2.71 6.646.841 2.588 1.641 5.576 2.391 8.784h3.08c-.02-.07-.03-.15-.05-.22l.01-.01Zm-553.326-1.809c1.41-5.686 3.01-10.523 4.62-13.401l-2.62-1.459c-1.06 1.919-2.03 4.347-2.95 7.175-.931 2.889-1.801 6.186-2.621 9.704h3.081c.16-.69.33-1.369.49-2.029v.01Z"/><path fill="#0C0F1D" fill-rule="evenodd" d="M224.458 330.141c12.591-38.665 13.371-58.292 10.731-58.482-2.64-.189-15.131 31.18-27.502 69.854a4697.474 4697.474 0 0 0-6.281 19.497h11.741c4.011-9.903 7.951-20.476 11.311-30.869Z" clip-rule="evenodd"/><path fill="#0C0F1D" d="M235.16 273.149v-1.16l-.08 1.16h.08Z"/><path fill="#0C0F1D" d="m235.08 273.149.08-1.16v-.01l-.02.24.01-.01-.07.94Zm.279-.55.2.48.1-.06-.3-.42Z"/><path fill="#0C0F1D" d="m235.56 273.079-.39-.95v1.03c.18 0 .32-.04.39-.07v-.01Zm-26.453 68.894c6.16-19.258 12.341-36.696 17.321-49.298 2.49-6.295 4.671-11.392 6.381-14.87.77-1.569 1.44-2.788 1.98-3.627v-.04c-.08-.62-.2-1.05-.28-1.209l-.03-.06.13-.09.35-.27.19-.28.02-.24.02-.33.11-1.499h-.13c-.45 0-.79.15-1.04.29-.48.29-.78.63-1.12 1.04-.6.769-1.24 1.818-1.98 3.207-1.291 2.419-2.851 5.847-4.641 10.114-5.37 12.801-12.771 33.228-20.132 56.242a3703.74 3703.74 0 0 0-6.42 19.947h3.15c1.92-6.006 3.971-12.382 6.131-19.027h-.01Zm.01-.02-.01.01.01-.01Z"/><path fill="#0C0F1D" d="m235.601 273.079.06-.06-.11.05c-.08.03-.21.07-.39.07h-.09a.958.958 0 0 1-.45-.15.534.534 0 0 1-.15-.13l.03.06c.08.16.2.59.28 1.21v.04c.06-.09.12-.19.17-.27.28-.42.51-.7.64-.83l.01.01Zm-1-.31-.13.09h.01l.12-.09Z"/><path fill="#0C0F1D" d="M235.16 271.989v.13l.39.949-.2-.469.3.42-.06.059c-.12.12-.36.41-.64.83-.05.08-.11.18-.17.27.08.619.13 1.419.13 2.398 0 3.848-.72 10.273-2.58 19.137-1.851 8.875-4.831 20.197-9.311 33.968-3.421 10.543-7.431 21.286-11.511 31.329h3.23c3.95-9.774 7.811-20.167 11.131-30.4 4.51-13.851 7.511-25.283 9.391-34.277 1.88-9.004 2.64-15.55 2.64-19.757 0-1.689-.12-2.988-.38-4.027-.14-.52-.31-.98-.62-1.429-.16-.22-.36-.44-.63-.63-.27-.18-.63-.32-.99-.34l-.11 1.499-.02.34h.01Z"/><path fill="#0C0F1D" d="M234.48 272.859s.06.07.15.13l.33-.5-.35.27-.13.1Zm.149.14c.1.07.28.14.45.15l.07-.93-.19.28-.33.5Zm.33-.5-.33.5.33-.5Zm-.359.27-.12.09.12-.09Z"/><path fill="#97F0E5" fill-rule="evenodd" d="M239.571 272.199c-42.334-8.205-102.519-44.48-111.59-47.578-14.031-4.797-42.633-58.212-61.075-39.224-13.18 13.631 5.9 43.121-20.622 24.583-7.35-5.406-12.62-8.894-17.701-12.142-19.512-11.612-31.173 5.447-25.452 24.005 2.17 6.575 9.36 14.18 15.371 19.706 2.28 2.159-7.73-3.217-13.26 2.789-8.172 8.684-1.591 21.555 6.84 30.359 0 0-21.782 22.286 18.981 45.85 2.7 1.609 45.344 21.665 86.288 40.453h94.618c16.471-32.898 22.551-59.021 27.612-88.811l-.01.01Z" clip-rule="evenodd"/><path fill="#0C0F1D" d="m18.492 241.55-.45-.8c-.13.07-.3.19-.44.38l.74.56.14-.14h.01Zm-.002 0-.44-.8.44.8Zm-.129.14-.75-.55.75.55Z"/><path fill="#0C0F1D" d="m18.362 241.69-.74-.56c-.19.25-.29.6-.29.85h.75l.28-.29Zm-.632.889-.18.14.01.01.17-.15Zm.352-.59h-.75c0 .29.08.46.12.56l.18-.08.45-.48Zm-.461.48-.17.08.17-.08Z"/><path fill="#0C0F1D" d="m17.671 242.449.42-.46h-.01l-.46.48.05-.02Zm-4.88 32.948.35.35v-.01l-.35-.34ZM3.13 221.843l1.43-.44v-.03l-1.42.47h-.01Zm1 21.475.01-.01-.01.01Zm235.44 28.881-1.48-.25c-.08.48-.16.95-.24 1.419.48.1.96.21 1.44.3l.29-1.469h-.01ZM28.581 197.838l-.81 1.26s.02.01.03.02h.01l.77-1.29v.01Zm17.692 12.143.89-1.21s-.01 0-.02-.02l-.86 1.23h-.01Zm-28.822 32.568s.02.05.04.07l.14-.15-.18.08Zm12.832 79.288h.02l.75-1.3-.77 1.29v.01ZM18.46 240.61c-.08.02-.21.04-.41.15l.45.8.17.31-.07-.45-.13-.8-.01-.01Z"/><path fill="#0C0F1D" d="M93.528 348.368a7229.906 7229.906 0 0 1-42.094-19.657c-5.6-2.638-10.26-4.856-13.66-6.495-1.7-.82-3.081-1.489-4.101-1.999-.51-.25-.93-.46-1.25-.629-.32-.16-.54-.29-.62-.33h-.02c-9.721-5.617-15.742-11.113-19.312-16.14-3.57-5.026-4.72-9.563-4.73-13.471 0-4.177 1.35-7.664 2.72-10.123a22.546 22.546 0 0 1 1.87-2.838c.25-.32.46-.57.6-.729l.16-.17.04-.04-.35-.35.35.34 1.01-1.04-1-1.049c-2.78-2.898-5.34-6.256-7.19-9.703-1.85-3.448-2.97-6.976-2.97-10.194.01-3.078.96-5.866 3.33-8.404h.01c.9-.989 1.92-1.589 3.01-1.969 1.09-.38 2.27-.519 3.41-.519 1.24 0 2.43.159 3.41.329l1.32.24c.19.04.37.07.55.09.18.02.34.04.56.05.18 0 .39 0 .77-.15.19-.08.44-.23.65-.509.21-.27.32-.66.32-.95 0-.34-.09-.559-.16-.709-.11-.24-.22-.36-.32-.49-.1-.12-.2-.22-.31-.33l-.02-.02c-2.97-2.728-6.23-5.976-8.98-9.314-2.75-3.327-4.99-6.765-5.97-9.743v.02l-1.43.44 1.42-.47v.01c-.94-3.058-1.38-6.066-1.38-8.884 0-4.907 1.35-9.194 3.68-12.192 1.17-1.499 2.57-2.688 4.19-3.498 1.63-.819 3.48-1.269 5.58-1.269 3.17 0 6.931 1.049 11.171 3.578 0 0-.02-.01-.03-.02l.81-1.259-.77 1.289h-.01c5.05 3.237 10.281 6.695 17.592 12.062l.02.02c3.05 2.138 5.53 3.667 7.59 4.676 2.06 1.01 3.7 1.539 5.201 1.549 1.02 0 2.01-.289 2.76-.909.56-.45.96-1.029 1.25-1.649.43-.929.63-1.949.75-3.068s.15-2.328.15-3.627c0-1.449-.04-2.998-.04-4.597 0-3.008.13-6.206.82-9.174.69-2.978 1.91-5.716 4.09-7.965 1.27-1.309 2.551-2.198 3.841-2.778a9.68 9.68 0 0 1 3.98-.84c1.95 0 4.03.54 6.231 1.559 3.85 1.769 7.99 4.997 12.121 8.915 6.211 5.876 12.441 13.281 18.102 19.586 2.84 3.158 5.53 6.036 8.06 8.325 2.53 2.288 4.861 4.017 7.181 4.827.97.33 2.9 1.229 5.47 2.518 9.041 4.537 26.303 14.011 45.924 23.245 19.142 8.994 40.524 17.768 58.955 21.575l.24-1.419 1.48.25-.29 1.469c-.47-.09-.96-.2-1.44-.3-3.26 18.968-6.98 36.436-13.621 55.194-3.63 10.263-8.161 20.936-13.951 32.438h3.36c5.521-11.103 9.891-21.456 13.421-31.439 6.891-19.457 10.671-37.535 13.991-57.112l.25-1.439-1.44-.28c-20.901-4.047-46.484-15.12-67.895-25.583-10.711-5.226-20.392-10.303-27.973-14.27-3.79-1.979-7.05-3.688-9.671-5.007-2.62-1.319-4.55-2.229-5.85-2.678-1.21-.41-2.76-1.369-4.47-2.769-3.011-2.448-6.531-6.205-10.311-10.443-5.681-6.355-11.971-13.8-18.382-19.716-3.21-2.959-6.44-5.537-9.69-7.396-3.251-1.858-6.531-3.038-9.811-3.038-1.76 0-3.52.35-5.201 1.1-1.68.749-3.28 1.888-4.77 3.427-2.64 2.739-4.08 6.036-4.85 9.384-.77 3.348-.89 6.756-.89 9.854 0 1.649.04 3.198.04 4.597 0 1.109-.02 2.128-.1 2.988-.1 1.299-.37 2.258-.66 2.698-.14.22-.27.33-.411.41-.15.08-.36.149-.73.149-.73.01-2.04-.329-3.88-1.239-1.84-.909-4.21-2.358-7.191-4.427 0 0 .01 0 .02.02l-.89 1.209.86-1.229c-7.36-5.416-12.681-8.924-17.762-12.182h-.02l-.02-.03c-4.6-2.738-8.88-3.997-12.72-4.007-2.54 0-4.88.56-6.931 1.589-3.08 1.549-5.48 4.127-7.08 7.305-1.61 3.188-2.44 6.975-2.45 11.063 0 3.128.49 6.435 1.52 9.773v.03c1.19 3.588 3.63 7.235 6.51 10.733 2.02 2.438 4.25 4.787 6.46 6.945 1.35.13 2.5.37 3.25.51.35.07.63.11.67.11v.81l.07.449.07.12-.37-.28.39.29h-.1l-.34.16-.77.57.18-.14-.17.15h-.01l-.08-.09c-.91-.84-1.85-1.729-2.79-2.659-.6-.059-1.24-.099-1.91-.099-1.38 0-2.89.169-4.39.679-1.5.51-2.98 1.389-4.24 2.758-2.86 3.068-4.11 6.746-4.1 10.453 0 3.908 1.32 7.865 3.32 11.613 1.8 3.347 4.16 6.535 6.74 9.363.54-.679.9-1.059.93-1.089l1.07 1.049-1.08 1.04c-.31-.32-.62-.66-.92-.99-.59.75-1.4 1.869-2.21 3.328-1.54 2.768-3.09 6.746-3.1 11.582 0 4.517 1.38 9.734 5.28 15.21 3.9 5.477 10.26 11.213 20.242 16.989l.77-1.289-.75 1.299c.22.13.52.29.95.51 1.69.869 5.31 2.618 10.4 5.036 15.312 7.295 43.864 20.637 72.097 33.608h7.19a5827.113 5827.113 0 0 1-27.402-12.632v-.02Z"/><path fill="#0C0F1D" d="m17.672 242.449-.05.02-.14.15s0 .02.01.02l.18-.19Zm-5.602 32.248L11 273.648s-.4.41-.93 1.089c.31.34.61.67.92.99l1.08-1.04v.01Zm6.39-34.087.13.8v-.82l-.13.02Zm.13.8-.13-.8.13.8Zm.002-.73.01-.09h-.01v.09Z"/><path fill="#0C0F1D" d="M17.482 242.619s-.02-.04-.04-.07c-.05-.1-.12-.27-.12-.56 0-.25.09-.609.29-.849.14-.19.31-.31.44-.38.2-.11.33-.13.41-.15h.13v-.01c-.04 0-.32-.04-.67-.11-.75-.14-1.9-.37-3.25-.51.94.92 1.88 1.819 2.79 2.659l.02-.02Zm1.009-1.07-.13.15.37.28-.06-.12-.18-.31Z"/><path fill="#0C0F1D" d="m17.48 242.649-.02-.02.08.08c0-.01-.03-.04-.05-.08v.02h-.01Z"/><path fill="#0C0F1D" d="M17.492 242.639s.04.07.05.08l.77-.57-.64.3-.18.19Zm-.002 0s0-.01-.01-.02l-.02.02.02.02v-.02h.01Zm.592-.65h.01l.27-.29v-.01l-.28.3Zm-.41.46.64-.3.34-.16h-.56l-.42.46Z"/><path fill="#0C0F1D" d="M18.652 241.989h.1l-.39-.29-.27.29h.56Zm41.432-39.524v.07c0 15.71 3.96 25.863 8.01 32.089 4.051 6.226 8.152 8.494 8.312 8.584l.72-1.319-1.49-.18a48.94 48.94 0 0 0-.36 5.936c0 10.413 3.5 18.518 8.01 24.164 2.26 2.818 4.76 5.037 7.22 6.636 2.461 1.599 4.871 2.598 7.021 2.968l.5-2.958c-1.61-.27-3.7-1.099-5.88-2.518-3.28-2.129-6.75-5.577-9.4-10.284-2.641-4.716-4.471-10.702-4.471-17.998 0-1.778.11-3.637.34-5.576l.12-1.009-.9-.49c-.07-.04-3.74-2.109-7.41-7.855-3.661-5.756-7.352-15.21-7.352-30.18v-.07h-3l.01-.01Z"/><path fill="#0C0F1D" d="M14.861 240.17c2.93 3.128 6.91 5.707 10.431 7.565 1.76.92 3.41 1.659 4.77 2.169.68.26 1.29.46 1.82.599.54.14.97.24 1.47.25h.14l-.16-2.998.02.4v-.4h-.02l.02.4v-.4c-.07 0-.39-.06-.81-.18-1.51-.429-4.32-1.599-7.24-3.267-2.94-1.659-6.03-3.828-8.23-6.186l-2.19 2.048h-.02ZM8.8 273.298c3.261 3.558 7.321 5.547 10.672 6.686 1.68.569 3.19.919 4.36 1.129 1.17.21 1.98.29 2.34.31l.16-2.998c-.18 0-.92-.08-1.96-.27-1.57-.29-3.88-.859-6.3-1.939-2.42-1.079-4.96-2.658-7.051-4.946l-2.21 2.028H8.8Zm358.752 70.983c-13.181-8.964-23.722-19.537-31.063-31.039-7.34-11.513-11.481-23.964-11.901-36.756l-3 .1c.44 13.381 4.78 26.363 12.371 38.265 11.391 17.858 30.082 33.318 54.004 44.33 1.361.63 2.741 1.229 4.131 1.829h8.031c-12.091-4.577-23.032-10.223-32.573-16.719v-.01Z"/><path fill="#0C0F1D" fill-rule="evenodd" d="M739.312 341.503c-12.371-38.674-24.862-70.053-27.502-69.854-2.64.19-1.86 19.817 10.731 58.482 3.37 10.393 7.3 20.956 11.311 30.869h11.741a4697.474 4697.474 0 0 0-6.281-19.497Z" clip-rule="evenodd"/><path fill="#0C0F1D" d="m712.369 272.999-.51-.78.07.93c.17-.01.34-.08.44-.15Zm.162-.14-.47-.34.31.48c.11-.07.15-.13.16-.14Zm-1.001-.11-.19.27.02.01.17-.28Zm-.16.22-.03.05.03-.05Z"/><path fill="#0C0F1D" d="m712.48 272.959.05-.1s-.05.07-.16.14c-.1.07-.27.14-.44.15h-.09c-.29 0-.43-.09-.48-.12h-.02v-.02c.01 0 .2.18.42.49.13.18.29.41.45.67.04-.35.09-.66.15-.88.04-.15.08-.27.11-.34l.01.01Z"/><path fill="#0C0F1D" d="m711.861 272.209.51.779-.31-.479.47.34-.05.1c-.03.079-.07.189-.11.339-.06.22-.11.53-.15.88.37.579.8 1.329 1.28 2.248 2.46 4.717 6.171 13.581 10.431 24.994 4.27 11.422 9.131 25.423 13.961 40.543 2.16 6.655 4.211 13.031 6.131 19.037h3.15c-2-6.276-4.16-12.961-6.421-19.957-6.17-19.307-12.381-36.785-17.381-49.477-2.51-6.346-4.71-11.482-6.481-15.09-.89-1.799-1.66-3.218-2.35-4.247-.35-.52-.67-.939-1.03-1.289-.18-.18-.38-.34-.63-.5a2.07 2.07 0 0 0-1.04-.3h-.13l.11 1.499.04.56v.02Zm-.022.01-.48.81s.19.11.48.12v-.93Z"/><path fill="#0C0F1D" d="M723.971 329.671c-4.48-13.761-7.461-25.093-9.311-33.968-1.85-8.864-2.58-15.289-2.58-19.137 0-.979.05-1.769.13-2.388-.17-.26-.32-.49-.45-.67-.22-.3-.41-.479-.42-.489l.19-.27-.17.289.48-.809v-.24l.02.23-.04-.56-.11-1.499c-.36.02-.72.16-.99.34-.48.33-.74.74-.93 1.139-.28.61-.43 1.27-.54 2.079-.11.809-.16 1.749-.16 2.858 0 4.197.76 10.753 2.64 19.757 1.88 8.994 4.88 20.426 9.391 34.277 3.32 10.233 7.18 20.627 11.131 30.4h3.24c-4.08-10.043-8.091-20.776-11.511-31.329l-.01-.01Z"/><path fill="#0C0F1D" d="m711.92 273.149-.07-.94h.01l-.02-.23v1.17h.08Z"/><path fill="#0C0F1D" d="M711.92 273.149h.01l-.07-.94h-.01l.07.94Z"/><path fill="#97F0E5" fill-rule="evenodd" d="M915.957 320.547c40.763-23.564 18.981-45.85 18.981-45.85 8.421-8.804 15.002-21.675 6.841-30.359-5.53-6.006-15.541-.63-13.261-2.789 6.01-5.526 13.201-13.131 15.371-19.706 5.711-18.558-5.94-35.617-25.452-24.005-5.07 3.248-10.351 6.736-17.701 12.142-26.523 18.538-7.451-10.952-20.622-24.583-18.442-18.988-47.044 34.427-61.075 39.224-9.071 3.098-69.256 39.373-111.59 47.578 5.061 29.78 11.151 55.903 27.613 88.811h94.618c40.943-18.787 83.597-38.854 86.287-40.453l-.01-.01Z" clip-rule="evenodd"/><path fill="#0C0F1D" d="m928.398 240.59.01.24v-.24h-.01Zm6.532 34.107 1.08 1.04c.31-.32.62-.66.92-.99-.54-.679-.9-1.059-.93-1.089l-1.07 1.049v-.01Zm-18.223 47.15h.02l-.77-1.29.75 1.3v-.01Zm11.932-80.158v.01l.27.29h.01l-.28-.3Zm-.231-.859v.83l.42-.97c-.3-.12-.39-.09-.42-.1v.24Zm.51 1.159h-.01l.43.46.04.03-.46-.49Zm-.42-.44.14.15v-.01l-.14-.14Zm-221.068 30.65.29 1.469c.47-.09.96-.21 1.44-.3-.08-.469-.16-.939-.24-1.419l-1.48.25h-.01Zm235.429-28.891.01.01-.01-.01Zm1.01-21.465-1.42-.47v.03l1.43.44h-.01Zm-9.66 53.554-.35.34v.01l.35-.35Zm-15.791-77.558.77 1.289h.01s.02-.009.03-.019l-.81-1.261v-.009Zm10.221 43.851.75-.55-.75.55Zm.699.759-.43-.46h-.56l.49.23.5.23Zm.16.19.02.02.02-.02-.02-.02s0 .01-.01.02h-.01Zm-28.772-32.658-.86-1.23s-.01 0-.02.02l.89 1.21h-.01Z"/><path fill="#0C0F1D" d="M928.969 240.51c-.17.03-.32.06-.43.07h-.12l-.03.02c.03 0 .12-.02.42.1.15.06.37.19.56.44.19.25.29.599.29.849 0 .29-.08.46-.12.57-.02.03-.02.04-.03.06l.02.02c.91-.84 1.85-1.729 2.79-2.659-.74.07-1.42.17-2.01.28-.53.09-.99.18-1.34.25Zm.53 2.129c-.04.06-.06.1-.06.1l.09-.1-.02.02-.02-.02h.01Z"/><path fill="#0C0F1D" d="m929.338 242.449-.5-.23.6.51s.02-.03.06-.1l-.17-.18h.01Zm-.7-.75-.36.27-.03.02h.66l-.27-.29Zm.741.78.17.07-.17-.07Zm-.041-.03.17.18s0-.01.01-.02l-.13-.14-.05-.02Z"/><path fill="#0C0F1D" d="m929.378 242.479.17.08c.05-.1.12-.27.12-.57h-.75l.46.49Z"/><path fill="#0C0F1D" d="M929.519 242.609s.02-.03.03-.06l-.17-.08.13.14h.01Zm-.6-.619h.75c0-.25-.09-.61-.29-.85l-.74.56.28.29Z"/><path fill="#0C0F1D" d="m928.498 241.55.14.15.74-.56c-.19-.25-.41-.38-.56-.44l-.55 1.28.36-.27-.14-.15.01-.01Z"/><path fill="#0C0F1D" d="M722.781 328.562c-6.641-18.768-10.361-36.236-13.621-55.204-.48.1-.96.21-1.44.3l-.29-1.469 1.48-.25c.08.48.16.95.24 1.419 21.132-4.367 46.154-15.25 67.205-25.523 10.761-5.256 20.472-10.343 28.053-14.31 3.79-1.979 7.04-3.688 9.621-4.977 2.57-1.289 4.5-2.189 5.47-2.518 1.77-.61 3.53-1.769 5.401-3.288 3.26-2.668 6.83-6.496 10.65-10.773 5.721-6.406 11.971-13.781 18.172-19.507 3.1-2.858 6.19-5.306 9.151-7.005 2.96-1.699 5.77-2.639 8.32-2.639 1.371 0 2.691.26 3.981.84 1.29.57 2.57 1.469 3.84 2.778 2.17 2.249 3.4 4.987 4.09 7.965.691 2.978.82 6.166.82 9.174 0 1.599-.039 3.148-.039 4.597 0 1.149.019 2.238.11 3.247.14 1.509.39 2.869 1.11 4.038.36.579.88 1.099 1.53 1.449.65.35 1.39.509 2.15.509 1.51-.01 3.14-.539 5.2-1.549 2.061-1.009 4.531-2.538 7.591-4.666h.02l.01-.02c7.311-5.377 12.541-8.835 17.591-12.062h-.01l-.77-1.29.811 1.26s-.021.01-.031.02c4.251-2.529 8.001-3.578 11.171-3.578 2.101 0 3.951.46 5.581 1.269 2.43 1.219 4.38 3.278 5.75 5.976 1.361 2.698 2.121 6.036 2.121 9.714 0 2.808-.44 5.816-1.381 8.884v-.01l1.421.47-1.431-.44v-.02c-.98 2.988-3.22 6.426-5.97 9.743-2.75 3.338-6.011 6.576-8.981 9.314v.02c-.15.14-.28.27-.42.45-.07.09-.14.2-.22.36-.07.159-.16.379-.16.709 0 .29.1.67.32.949.16.21.34.35.5.43.24.13.42.17.56.19.14.02.25.03.35.03.21 0 .38-.02.56-.05.6-.09 1.33-.25 2.241-.4.9-.15 1.95-.269 3.03-.269 1.14 0 2.32.139 3.41.519 1.1.38 2.11.98 3.01 1.959h.01v.01c2.371 2.538 3.311 5.326 3.331 8.404 0 3.218-1.11 6.746-2.971 10.194-1.85 3.447-4.41 6.805-7.19 9.703l-1 1.049 1.01 1.04s1.39 1.449 2.73 3.897c1.34 2.448 2.66 5.896 2.65 10.003 0 3.908-1.16 8.445-4.73 13.471-3.571 5.017-9.591 10.524-19.312 16.14h-.01c-.09.06-.39.21-.8.429-1.63.83-5.25 2.589-10.321 5.007-16.361 7.795-47.924 22.535-77.996 36.316h7.19a9313.777 9313.777 0 0 0 21.482-9.913 6969.064 6969.064 0 0 0 42.114-19.667c5.6-2.649 10.27-4.867 13.681-6.506 1.7-.819 3.09-1.499 4.13-2.009.52-.26.95-.469 1.29-.649.33-.17.57-.3.76-.41l-.75-1.299.77 1.289c9.971-5.766 16.342-11.512 20.242-16.989 3.9-5.476 5.29-10.693 5.28-15.21 0-4.826-1.56-8.814-3.1-11.582a25.046 25.046 0 0 0-2.21-3.328c-.31.34-.61.67-.92.99l-1.08-1.04 1.07-1.049s.4.41.93 1.089c2.58-2.828 4.94-6.016 6.741-9.363 2.01-3.748 3.32-7.705 3.32-11.613.01-3.707-1.24-7.385-4.131-10.453a10.265 10.265 0 0 0-4.24-2.758c-1.5-.51-3.01-.679-4.39-.679-.67 0-1.31.04-1.91.099-.94.92-1.881 1.819-2.791 2.659l-.09.1-.6-.51-.49-.23h-.1l.02-.02.55-1.279-.42.969v-1.069h.03l.12-.02c.1-.01.25-.04.43-.07.35-.06.81-.15 1.34-.25.59-.1 1.271-.2 2.011-.28 2.2-2.158 4.44-4.497 6.46-6.945 2.88-3.498 5.321-7.145 6.511-10.733v-.03c1.03-3.338 1.52-6.645 1.52-9.773 0-5.447-1.48-10.383-4.311-14.031-1.41-1.819-3.17-3.318-5.22-4.337-2.05-1.029-4.39-1.589-6.931-1.589-3.84 0-8.12 1.269-12.721 4.007l-.03.02h-.02c-5.08 3.268-10.391 6.776-17.761 12.192l.86 1.229-.89-1.209s.01 0 .02-.02c-2.97 2.079-5.341 3.528-7.191 4.427-1.84.91-3.15 1.249-3.88 1.239-.5 0-.7-.109-.87-.239-.13-.11-.27-.28-.41-.58-.21-.45-.39-1.179-.49-2.119-.1-.929-.13-2.058-.13-3.307 0-1.399.04-2.948.04-4.597 0-3.088-.12-6.506-.89-9.854-.77-3.338-2.21-6.645-4.851-9.384-1.5-1.539-3.09-2.678-4.77-3.427-1.68-.75-3.43-1.1-5.201-1.1-2.5 0-5.01.69-7.49 1.829-4.341 2.009-8.661 5.427-12.931 9.464-6.391 6.046-12.651 13.511-18.272 19.757-2.81 3.128-5.46 5.946-7.84 8.114-2.381 2.169-4.531 3.668-6.131 4.208-1.3.449-3.23 1.359-5.851 2.678-9.13 4.587-26.322 14.021-45.853 23.204-19.522 9.184-41.394 18.108-59.685 21.646l-1.441.28.25 1.439c3.331 19.587 7.111 37.655 13.992 57.112 3.53 9.983 7.9 20.336 13.421 31.439h3.36c-5.79-11.502-10.311-22.175-13.951-32.438l.02.05Z"/><path fill="#0C0F1D" d="M883.914 202.465v.07c0 15.21-3.81 24.724-7.531 30.45-1.86 2.858-3.71 4.777-5.07 5.966-.68.6-1.24 1.009-1.62 1.269-.19.13-.33.22-.43.28l-.1.06h-.02l.21.39-.21-.38-.9.49.12 1.009c.23 1.939.34 3.798.34 5.576 0 9.734-3.25 17.139-7.361 22.286-2.06 2.568-4.33 4.576-6.51 5.996-2.181 1.419-4.271 2.258-5.881 2.518l.5 2.958c2.15-.37 4.561-1.369 7.021-2.968 3.69-2.409 7.48-6.186 10.381-11.333 2.89-5.146 4.86-11.662 4.86-19.467 0-1.898-.12-3.877-.36-5.936l-1.49.18.72 1.319c.17-.09 4.26-2.358 8.311-8.584 4.05-6.216 8.02-16.379 8.01-32.089v-.07h-3l.01.01Zm46.035 35.667c-2.561 2.748-6.311 5.216-9.631 6.955-1.66.87-3.21 1.559-4.43 2.019-.611.23-1.141.409-1.551.519l-.49.12-.14.02h-.04v.4l.02-.4h-.02v.4l.02-.4-.16 2.998h.14c.5 0 .93-.1 1.47-.24.931-.249 2.101-.679 3.461-1.269 4.06-1.778 9.701-4.956 13.561-9.064l-2.19-2.048-.02-.01Zm6.04 33.148c-2.79 3.048-6.38 4.846-9.411 5.866-1.52.509-2.89.829-3.94 1.019-1.04.19-1.79.26-1.96.27l.16 2.998c.35-.02 1.16-.1 2.34-.31 1.75-.32 4.28-.949 6.981-2.148 2.7-1.21 5.6-2.988 8.05-5.657l-2.21-2.028-.01-.01Zm-354.851 75.479c13.472-9.163 24.302-20.006 31.903-31.908 7.591-11.902 11.931-24.884 12.371-38.265l-3-.1c-.42 12.792-4.561 25.243-11.901 36.756-11.011 17.268-29.233 32.408-52.725 43.211A170.938 170.938 0 0 1 546.855 361h8.051c9.571-4.097 18.352-8.884 26.242-14.241h-.01Z"/><path fill="#97F0E5" d="M473.5 17.988c-33.503 0-61.205 20.437-70.956 42.212-8.811 19.767-45.434 134.541-53.345 161.962-50.924 172.925 299.145 172.925 248.231 0-8.04-27.421-44.544-142.195-53.474-161.962-9.661-21.846-36.993-42.212-70.446-42.212"/><path fill="#0C0F1D" d="M473.5 16.489c-17.061 0-32.643 5.207-45.194 13.171-12.551 7.975-22.111 18.718-27.132 29.92-1.13 2.539-2.67 6.506-4.53 11.613-13.041 35.666-41.944 126.496-48.884 150.55-3.511 11.892-5.141 23.024-5.141 33.357 0 16.38 4.11 30.77 11.311 43.082 10.801 18.487 28.483 32.268 49.524 41.432 21.042 9.164 45.454 13.731 69.866 13.731 32.543 0 65.106-8.105 89.648-24.444 12.271-8.164 22.542-18.407 29.732-30.729 7.201-12.322 11.311-26.712 11.311-43.082 0-10.333-1.63-21.455-5.14-33.367-4.031-13.741-15.162-49.288-26.412-83.895-5.621-17.298-11.281-34.367-16.092-48.347-2.4-6.996-4.6-13.212-6.47-18.308-1.881-5.097-3.431-9.074-4.571-11.613-4.98-11.232-14.421-21.975-26.862-29.94-12.451-7.964-27.922-13.15-44.954-13.15v2.997a80.358 80.358 0 0 1 43.334 12.682c12.001 7.675 21.052 18.038 25.742 28.64 1.09 2.409 2.63 6.356 4.49 11.423 13.052 35.506 41.894 126.416 48.915 150.36 3.43 11.662 5.02 22.495 5.02 32.518 0 15.88-3.97 29.701-10.901 41.573-10.401 17.798-27.532 31.219-48.134 40.203-20.592 8.974-44.624 13.481-68.666 13.481-32.053 0-64.085-8.015-87.987-23.934-11.951-7.955-21.872-17.878-28.803-29.74-6.93-11.872-10.891-25.703-10.901-41.573 0-10.023 1.581-20.856 5.021-32.518 3.94-13.671 15.081-49.227 26.322-83.814 5.621-17.289 11.271-34.337 16.061-48.298 2.401-6.975 4.581-13.181 6.431-18.248 1.85-5.067 3.39-9.014 4.46-11.412 4.721-10.563 13.892-20.927 26.003-28.621 12.111-7.695 27.142-12.712 43.583-12.712V16.48v.01Z"/><path fill="#0C0F1D" fill-rule="evenodd" d="M452.958 126.636c-19.272 4.077-46.324 31.499-52.325 47.698-2.42 6.506-4.08 12.502-5.1 18.108-10.591 59.81 55.004 67.205 77.596 45.14 22.712 22.065 88.188 14.67 77.727-45.14-1.02-5.616-2.68-11.602-5.101-18.108-6-16.199-33.052-43.611-52.324-47.698-12.631-3.318-28.332-3.318-40.453 0h-.02Z" clip-rule="evenodd"/><path fill="#0C0F1D" d="m452.958 126.636-.31-1.469c-5.081 1.079-10.511 3.637-15.961 7.095-8.161 5.197-16.332 12.432-23.062 19.927-6.731 7.505-12.031 15.23-14.402 21.615-2.45 6.576-4.14 12.652-5.17 18.358-.8 4.497-1.17 8.714-1.17 12.662 0 7.955 1.53 14.82 4.21 20.626 4.031 8.714 10.651 15 18.392 19.067 7.75 4.068 16.631 5.956 25.322 5.956 6.46 0 12.831-1.039 18.571-3.037 5.741-1.999 10.861-4.937 14.802-8.785l-1.05-1.069-1.05 1.079c3.96 3.848 9.09 6.786 14.841 8.784 5.75 1.989 12.121 3.038 18.581 3.038 11.601 0 23.542-3.357 32.673-10.792 4.56-3.718 8.401-8.465 11.081-14.291 2.69-5.816 4.22-12.701 4.22-20.666 0-3.918-.37-8.095-1.15-12.542-1.04-5.706-2.72-11.792-5.17-18.368-1.58-4.257-4.461-9.094-8.201-14.09-5.61-7.485-13.151-15.29-21.152-21.646-8.01-6.356-16.451-11.282-24.062-12.911l-.31 1.469.38-1.449c-6.46-1.699-13.661-2.539-20.801-2.539-7.141 0-14.212.84-20.432 2.539l.4 1.449.4 1.449c5.9-1.619 12.741-2.439 19.642-2.429 6.9 0 13.871.82 20.041 2.439h.03l.04.02c4.561.959 9.731 3.358 14.972 6.695 7.86 4.997 15.871 12.092 22.441 19.407 6.571 7.306 11.691 14.881 13.822 20.657 2.4 6.435 4.03 12.342 5.03 17.858.75 4.287 1.1 8.284 1.1 12.012 0 7.585-1.45 14.021-3.94 19.417-3.741 8.085-9.821 13.891-17.082 17.718-7.25 3.818-15.681 5.626-23.952 5.626-6.14 0-12.191-.999-17.601-2.868-5.411-1.868-10.161-4.627-13.731-8.094l-1.05-1.02-1.051 1.02c-3.55 3.467-8.29 6.226-13.681 8.094-5.39 1.879-11.441 2.868-17.581 2.868-11.011 0-22.292-3.207-30.743-10.093-4.23-3.448-7.76-7.805-10.251-13.191-2.49-5.386-3.94-11.792-3.94-19.367 0-3.758.36-7.795 1.13-12.132 1-5.506 2.64-11.413 5.031-17.848 1.42-3.838 4.17-8.505 7.79-13.331 5.431-7.256 12.831-14.91 20.622-21.096 7.781-6.186 15.981-10.883 22.822-12.322h.04l.04-.02-.4-1.449-.01-.03Z"/><path fill="#0C0F1D" fill-rule="evenodd" d="M471.97 214.258c25.272 0 45.814 14.41 45.814 32.008 0 17.599-20.552 32.009-45.814 32.009s-45.814-14.28-45.814-32.009c0-17.728 20.422-32.008 45.814-32.008Z" clip-rule="evenodd"/><path fill="#0C0F1D" d="M471.97 214.258v1.499c12.352 0 23.523 3.527 31.523 9.133 4.001 2.799 7.211 6.106 9.401 9.724 2.2 3.618 3.39 7.545 3.39 11.652 0 4.138-1.19 8.075-3.39 11.703-3.29 5.436-8.871 10.153-15.971 13.491-7.101 3.347-15.702 5.316-24.962 5.306-12.422 0-23.592-3.498-31.573-9.084-3.991-2.788-7.191-6.096-9.371-9.713-2.19-3.628-3.37-7.565-3.37-11.703 0-4.107 1.19-8.034 3.37-11.652 3.28-5.426 8.831-10.153 15.931-13.511 7.091-3.358 15.702-5.346 25.013-5.346v-2.998c-12.982 0-24.723 3.667-33.293 9.673-4.291 3.008-7.781 6.596-10.221 10.633-2.44 4.027-3.801 8.504-3.801 13.201 0 4.717 1.371 9.214 3.801 13.251 3.66 6.056 9.691 11.113 17.221 14.661 7.531 3.547 16.562 5.596 26.302 5.596 12.922 0 24.653-3.638 33.243-9.624 4.291-2.998 7.801-6.585 10.251-10.623 2.45-4.037 3.82-8.534 3.82-13.251 0-4.697-1.38-9.174-3.82-13.201-3.67-6.046-9.721-11.113-17.251-14.67-7.531-3.558-16.552-5.626-26.243-5.636v1.499-.01Z"/><path fill="#97F0E5" fill-rule="evenodd" d="M473.63 205.453c25.392 0 45.814 14.411 45.814 32.009s-20.422 32.009-45.814 32.009-45.814-14.281-45.814-32.009 20.552-32.009 45.814-32.009Z" clip-rule="evenodd"/><path fill="#0C0F1D" d="M473.63 205.453v1.499c12.411 0 23.582 3.538 31.573 9.134 3.99 2.798 7.191 6.106 9.371 9.724 2.19 3.617 3.37 7.545 3.37 11.652 0 4.137-1.19 8.075-3.37 11.702-3.27 5.437-8.831 10.154-15.931 13.491-7.091 3.348-15.702 5.317-25.023 5.307-12.351 0-23.522-3.498-31.522-9.084-4.001-2.788-7.211-6.096-9.401-9.724-2.19-3.627-3.39-7.565-3.39-11.702 0-4.107 1.19-8.025 3.39-11.652 3.29-5.426 8.871-10.163 15.971-13.521 7.101-3.358 15.702-5.347 24.962-5.347v-2.998c-12.921 0-24.652 3.678-33.242 9.674-4.291 3.008-7.801 6.596-10.251 10.633-2.45 4.027-3.821 8.514-3.821 13.201 0 4.727 1.371 9.224 3.821 13.251 3.67 6.056 9.731 11.103 17.251 14.651 7.531 3.547 16.552 5.596 26.242 5.596 12.981 0 24.712-3.638 33.293-9.624 4.291-2.998 7.781-6.585 10.221-10.623 2.44-4.037 3.8-8.534 3.8-13.251 0-4.687-1.37-9.174-3.8-13.201-3.66-6.046-9.691-11.113-17.211-14.68-7.531-3.568-16.562-5.637-26.303-5.637v1.529Z"/><path fill="#0C0F1D" fill-rule="evenodd" d="M456.269 142.066c-16.211 3.187-38.793 25.892-43.773 39.154-2.041 5.356-3.451 10.333-4.341 15.05-8.811 49.227 46.074 55.343 64.956 37.105 19.011 18.238 73.766 12.112 64.955-37.105-.76-4.717-2.17-9.694-4.21-15.05-4.981-13.262-27.563-35.967-43.774-39.154-10.591-2.809-23.742-2.809-33.823 0h.01Z" clip-rule="evenodd"/><path fill="#0C0F1D" d="m456.269 142.066-.29-1.469c-4.32.849-8.9 2.948-13.481 5.796-6.86 4.277-13.711 10.253-19.351 16.439-5.641 6.206-10.071 12.571-12.061 17.858-2.071 5.426-3.501 10.483-4.411 15.3v.01c-.66 3.687-.97 7.155-.97 10.403 0 6.585 1.29 12.292 3.55 17.108 3.401 7.246 8.981 12.462 15.502 15.84 6.52 3.378 13.991 4.937 21.291 4.937 5.441 0 10.791-.87 15.622-2.519 4.83-1.659 9.151-4.107 12.481-7.325l-1.04-1.079-1.04 1.079c3.35 3.208 7.68 5.656 12.521 7.315 4.84 1.659 10.201 2.519 15.641 2.519 9.731 0 19.752-2.769 27.422-8.934a33.16 33.16 0 0 0 9.321-11.833c2.26-4.816 3.55-10.523 3.54-17.098 0-3.258-.31-6.726-.97-10.423l-1.48.26 1.48-.24c-.78-4.837-2.22-9.914-4.29-15.34-1.33-3.518-3.74-7.515-6.871-11.632-4.69-6.176-11.011-12.622-17.721-17.869-6.731-5.236-13.821-9.293-20.292-10.582l-.29 1.469.38-1.449c-5.44-1.44-11.491-2.159-17.481-2.159-5.991 0-11.921.709-17.122 2.159l.4 1.449.4 1.449c4.881-1.36 10.571-2.049 16.322-2.049 5.75 0 11.571.689 16.721 2.059h.05l.05.02c3.79.739 8.101 2.678 12.471 5.396 6.561 4.077 13.251 9.903 18.712 15.919 5.47 5.996 9.731 12.232 11.471 16.889 2.01 5.287 3.39 10.163 4.13 14.76v.02c.63 3.538.93 6.836.93 9.904 0 6.196-1.2 11.432-3.26 15.829-3.09 6.586-8.121 11.313-14.141 14.441-6.011 3.118-13.011 4.597-19.892 4.597-5.12 0-10.161-.82-14.661-2.359-4.501-1.539-8.451-3.797-11.411-6.645l-1.04-1-1.04 1c-2.941 2.838-6.871 5.106-11.371 6.645-4.491 1.539-9.531 2.359-14.652 2.359-9.17 0-18.561-2.639-25.572-8.275-3.51-2.818-6.44-6.386-8.5-10.783-2.061-4.397-3.271-9.633-3.271-15.839 0-3.058.29-6.346.93-9.884l-1.48-.259 1.47.279c.88-4.627 2.251-9.513 4.271-14.79 1.16-3.108 3.44-6.925 6.45-10.883 4.521-5.946 10.681-12.251 17.182-17.318 6.49-5.077 13.341-8.894 19.031-10.003h.06l.05-.03-.4-1.449v.01Z"/><path fill="#0C0F1D" fill-rule="evenodd" d="M494.812 241.03c4.72-1.399 9.701 17.728-.13 24.993-.13.13-7.911 6.756-3.061 10.203 5.361 3.828 9.441 18.238 9.951 30.1.89 19.767-3.96 40.424-7.02 44.891 1.53-.13 13.531-2.169 13.531-2.679-.13-.639 4.47-30.35 4.47-37.495-.13-19.897 1.02-40.303 1.02-60.45 0-9.054-2.55-9.054-12.121-9.693-.89-.13-5.36-.38-6-.13l-.64.26Zm-43.135 0c-4.72-1.399-9.57 17.728.26 24.993.13.13 7.781 6.756 3.061 10.203-5.361 3.828-9.571 18.238-10.081 30.1-.89 19.767 3.96 40.424 7.15 44.891-1.66-.13-13.651-2.169-13.531-2.679 0-.639-4.59-30.35-4.59-37.495.13-19.897-1.02-40.303-1.02-60.45 0-9.054 2.55-9.054 12.121-9.693 1.02-.13 5.49-.38 6-.13l.64.26h-.01Z" clip-rule="evenodd"/><path fill="#F7F7F7" fill-rule="evenodd" d="M439.297 322.016c0-35.067 2.04-74.351 4.21-86.333-5.1.64-12.001.13-18.252-1.399-9.44-2.548-16.081-6.885-16.081-7.655-4.21 33.918-3.45 80.976 4.85 115.663.56 2.419 1.541 10.044 3.241 18.708h22.312c0-11.352-.28-24.823-.28-38.984Z" clip-rule="evenodd"/><path fill="#0C0F1D" d="M443.697 237.162c-.63.08-1.3.13-1.97.18-.45 2.998-.87 7.006-1.28 11.822-1.49 17.809-2.64 46.499-2.64 72.842 0 14.111.28 27.522.28 38.814v.17h3v-.17c0-11.342-.28-24.743-.28-38.814 0-17.508.51-36.076 1.29-51.746.39-7.834.85-14.95 1.34-20.846.49-5.886 1.03-10.573 1.55-13.471l.36-2.009-2.03.25.19 1.489.19 1.489Zm-18.441-2.887.39-1.45h-.03l-.36 1.46v-.01Z"/><path fill="#0C0F1D" d="m443.507 235.673-1.48-.269c-.1.579-.21 1.239-.31 1.928.67-.05 1.34-.1 1.97-.18l-.19-1.489.01.01Zm-34.333-9.054h-1.5c0 .3.07.5.14.66.13.3.26.46.39.62.25.279.52.519.85.779.35.28.79.58 1.29.899.11-.929.21-1.868.32-2.778l-1.49-.18Zm1.37-.569-.98.5 1.11.07c0-.33-.09-.48-.13-.57Z"/><path fill="#0C0F1D" d="m409.975 226.35.57-.3-.07-.11-.5.41Z"/><path fill="#0C0F1D" d="M417.715 355.154c-.54-3.088-.98-5.896-1.34-8.165-.36-2.278-.64-3.997-.88-5.036v-.01c-5.061-21.166-7.321-47.079-7.311-71.743 0-14.36.77-28.281 2.171-40.613a16.92 16.92 0 0 1-1.291-.899c-.34-.27-.61-.5-.85-.78a2.353 2.353 0 0 1-.39-.619c-.06-.16-.13-.36-.14-.66h1.5l1.491.18c-.11.91-.21 1.849-.32 2.778.33.21.68.43 1.07.66 2.95 1.729 7.68 3.917 13.451 5.486h.03c4.61 1.13 9.531 1.709 13.911 1.719 1 0 1.97-.04 2.9-.1.1-.689.21-1.349.31-1.929l1.48.27-.19-1.489c-1.37.17-2.89.26-4.51.26-4.11 0-8.831-.559-13.191-1.629h.02l-.39 1.449.36-1.459h.01c-4.591-1.239-8.511-2.918-11.251-4.367-1.37-.719-2.45-1.389-3.14-1.889a6.94 6.94 0 0 1-.7-.569l-.05-.06.07.11c.04.09.13.25.13.569h-1.251l.13-.07-1.87-.12c-1.63 13.132-2.52 28.202-2.52 43.761 0 24.844 2.26 50.946 7.401 72.442.17.71.41 2.129.7 3.968.57 3.547 1.37 8.734 2.47 14.39h3.06c-.4-2.019-.76-3.987-1.09-5.846l.01.01Z"/><path fill="#0C0F1D" d="m410.676 226.619-1.11-.06-.13.06h1.24Z"/><path fill="#2F3759" fill-rule="evenodd" d="M473.501 40.723c32.962-.16 56.814 6.636 74.516 16.659-.51-1.04-.85-1.859-1.18-2.678C535.696 29.98 517.214.879 473.501 1.499c-43.714-.63-62.196 28.481-73.337 53.205-.33.82-.66 1.639-1.18 2.678 17.702-10.033 41.554-16.819 74.517-16.66Z" clip-rule="evenodd"/><path fill="#0C0F1D" d="M473.501 42.222h1.11c32.183 0 55.405 6.695 72.656 16.469.58.33 1.29.24 1.77-.22.48-.45.61-1.16.31-1.759-.49-.98-.8-1.748-1.13-2.568l-.02-.06c-5.55-12.312-12.941-25.803-24.452-36.276-5.75-5.236-12.541-9.693-20.612-12.851C495.073 1.829 485.722 0 474.881 0c-.46 0-.93 0-1.4.01-.82.01-1.48.69-1.48 1.509 0 .82.68 1.489 1.5 1.489s1.49-.67 1.5-1.489c0-.82-.65-1.499-1.48-1.509h-1.4c-10.851 0-20.192 1.829-28.263 4.977-12.111 4.727-21.321 12.411-28.512 21.196-7.191 8.794-12.391 18.687-16.551 27.921l-.02.06c-.331.82-.641 1.589-1.131 2.568-.29.59-.17 1.3.31 1.76a1.516 1.516 0 0 0 1.771.219c17.251-9.773 40.483-16.47 72.656-16.47h1.11c.4 0 .78-.149 1.06-.439a1.497 1.497 0 0 0-1.06-2.558 1.5 1.5 0 1 0 1.5 1.499c0-.83-.66-1.5-1.49-1.5h-1.12c-32.593 0-56.385 6.806-74.137 16.86l.741 1.299 1.34.67c.54-1.09.89-1.96 1.22-2.779l-1.39-.56 1.37.62c5.47-12.152 12.701-25.263 23.732-35.286 5.52-5.017 11.981-9.264 19.681-12.272 7.701-3.008 16.662-4.767 27.173-4.777h1.36l.02-1.499V0v1.499l.02 1.499h1.36c10.511 0 19.462 1.769 27.172 4.777 11.551 4.507 20.332 11.822 27.283 20.306 6.94 8.485 12.031 18.138 16.141 27.252l1.37-.62-1.39.56c.33.82.68 1.7 1.22 2.778l1.34-.67.74-1.298c-17.751-10.064-41.553-16.86-74.136-16.86h-1.12c-.83 0-1.49.68-1.49 1.5 0 .83.67 1.499 1.5 1.499Z"/><path fill="#2F3759" fill-rule="evenodd" d="M473.391 18.997c-27.303 0-46.994 5.407-63.826 15.4-13.791 8.195-19.501 40.993-12.711 44.36 18.902-10.942 41.194-18.407 76.657-18.297l-.12-41.463Z" clip-rule="evenodd"/><path fill="#0C0F1D" d="M473.389 18.997v-1.499c-27.492 0-47.524 5.467-64.595 15.61-2.7 1.609-5.041 4.007-7.051 6.855-3.01 4.268-5.3 9.554-6.87 14.87-1.561 5.317-2.391 10.654-2.391 15.07 0 2.359.23 4.458.77 6.196.27.87.621 1.66 1.091 2.349.47.68 1.08 1.269 1.84 1.649.45.22.98.21 1.42-.05 9.291-5.377 19.371-9.894 31.482-13.072 12.112-3.177 26.263-5.026 43.664-5.026h.74a1.5 1.5 0 0 0 1.5-1.5l-.12-41.462c0-.83-.67-1.499-1.5-1.499v1.5h-1.5l.12 41.462h1.5v-1.5h-.75c-17.611 0-32.033 1.87-44.424 5.127-12.391 3.248-22.751 7.895-32.232 13.382l.75 1.299.67-1.34c-.21-.11-.45-.3-.7-.659-.37-.54-.73-1.44-.97-2.608-.24-1.18-.36-2.619-.36-4.237 0-5.387 1.39-12.682 3.99-19.238 1.3-3.278 2.89-6.376 4.72-8.974 1.831-2.598 3.911-4.687 6.131-6.006 16.591-9.843 35.943-15.18 63.065-15.19v-1.499l.01-.01Z"/><path fill="#2F3759" fill-rule="evenodd" d="M473.62 18.997c27.302 0 46.994 5.407 63.825 15.4 13.792 8.195 19.502 40.993 12.711 44.36C531.255 67.816 508.963 60.35 473.5 60.46l.12-41.463Z" clip-rule="evenodd"/><path fill="#0C0F1D" d="M473.62 18.997v1.5c27.112 0 46.474 5.346 63.065 15.19 2.221 1.318 4.291 3.407 6.131 6.005 2.75 3.898 4.95 8.924 6.441 13.991 1.49 5.067 2.27 10.183 2.27 14.22 0 2.16-.23 4.008-.64 5.317-.2.66-.45 1.17-.7 1.529-.25.36-.49.56-.7.66l.67 1.339.75-1.3c-9.481-5.486-19.842-10.123-32.233-13.38-12.391-3.258-26.812-5.127-44.424-5.127h-.75v1.499h1.5l.12-41.463h-3L472 60.43a1.5 1.5 0 0 0 1.5 1.499h.74c17.402 0 31.553 1.849 43.664 5.026 12.111 3.178 22.192 7.695 31.483 13.072.43.25.97.27 1.42.05.76-.38 1.37-.96 1.84-1.65.7-1.029 1.14-2.288 1.44-3.717.29-1.439.42-3.058.42-4.826 0-5.877-1.47-13.422-4.2-20.337-1.37-3.458-3.051-6.755-5.061-9.604-2.01-2.848-4.34-5.246-7.05-6.855-17.072-10.143-37.104-15.62-64.596-15.61-.83 0-1.5.67-1.5 1.5h1.5l.02.02Z"/><path fill="#F7F7F7" fill-rule="evenodd" d="M532.845 342.292c8.171-34.687 9.061-81.745 4.72-115.663.13.77-6.64 5.097-15.951 7.655-6.251 1.529-13.271 2.039-18.382 1.399 2.171 11.992 4.341 51.266 4.341 86.333-.05 14.161-.36 27.632-.37 38.984h22.402c1.7-8.664 2.68-16.299 3.24-18.708Z" clip-rule="evenodd"/><path fill="#0C0F1D" d="m503.233 235.673-.19 1.489c.63.08 1.3.13 1.97.18-.1-.689-.21-1.349-.31-1.928l-1.48.269.01-.01Zm35.712-8.384c-.06.16-.13.28-.2.38-.14.2-.27.349-.42.499-.29.29-.64.57-1.07.88-.25.18-.54.369-.84.569 1.44 12.342 2.23 26.273 2.22 40.653 0 24.644-2.27 50.537-7.251 71.683-.21.909-.44 2.328-.74 4.187-.59 3.677-1.42 9.064-2.57 14.87h3.06c.361-1.839.691-3.638.991-5.336.54-3.118.99-5.946 1.35-8.205.36-2.258.64-3.997.84-4.827 5.05-21.466 7.33-47.538 7.33-72.362 0-15.579-.9-30.669-2.58-43.831l.02.21c0 .28-.07.49-.13.65l-.01-.02ZM536.276 226l-.02-.01.02.01Zm1.15.65-1.34.2 1.48-.23 1.49-.19v-.041l-1.74.25.02.011h.09Z"/><path fill="#0C0F1D" d="M537.426 226.649h-.16l-1.18.16v.04l1.34-.2Zm-.09 0-.02-.01-.05.01h.07Zm-1.272 0 .02.16 1.18-.16h-1.2Z"/><path fill="#0C0F1D" d="M536.086 226.849v-.04c.12.92.22 1.859.33 2.798.3-.2.59-.389.84-.569.43-.31.78-.59 1.07-.88.15-.15.28-.299.42-.499.07-.1.14-.22.2-.38s.13-.36.13-.65l-.02-.21-1.49.19-1.48.23v.01Z"/><path fill="#0C0F1D" d="M504.713 235.414c.1.579.21 1.239.31 1.928.94.06 1.92.1 2.93.1 4.42 0 9.401-.589 14.021-1.719h.01l.03-.01c4.73-1.299 8.811-3.038 11.741-4.577a34.618 34.618 0 0 0 2.66-1.539c-.11-.939-.21-1.878-.33-2.798l-.01-.17c0-.229.05-.379.09-.469.04-.09.07-.14.08-.16l.02-.02s-.18.18-.42.37c-.43.339-1.13.809-2.03 1.329-2.7 1.579-7.221 3.667-12.571 5.136h.02l.36 1.459-.4-1.449h.02c-4.36 1.07-9.141 1.629-13.281 1.619-1.63 0-3.17-.09-4.53-.26l-2.031-.249.36 2.008 1.481-.27 1.48-.269-.01.01Z"/><path fill="#0C0F1D" d="m521.615 234.275-.36-1.46h-.04l.4 1.45v.01Zm-12.543 87.741c0-17.568-.54-36.176-1.36-51.906-.41-7.864-.88-15.01-1.39-20.946-.42-4.826-.85-8.824-1.3-11.822-.68-.05-1.34-.1-1.97-.18l.19-1.489-1.48.27c.53 2.908 1.07 7.585 1.57 13.481 1.52 17.688 2.74 46.339 2.74 72.592-.05 14.151-.36 27.602-.37 38.984h3c0-11.332.32-24.793.37-38.984Zm27.534-95.766-.35-.26-.01.02.36.24Z"/><path fill="#0C0F1D" d="M536.246 226.01s-.05.07-.08.16l.85.34-.4-.26-.37-.24Zm1.018.64h.05l-1.16-.47c-.04.09-.09.24-.09.47h1.2Zm-.658-.4-.36-.24.36.24Z"/><path fill="#E9CCFF" d="M570.459 125.716a16.14 16.14 0 0 1-3.511 3.798 15.684 15.684 0 0 1-4.47 2.438c-9.261 3.208-27.932 8.635-36.733 10.673-11.411 2.618-14.101-2.158-16.202-4.217-1.6-1.569-10.661-15.859-17.161-26.003-4.21-5.566-7.001-8.454-19.482-8.264-13.531-.08-16.371 5.156-19.251 8.584-6.551 10.113-15.382 24.124-16.962 25.683-2.1 2.059-4.8 6.835-16.201 4.217-8.801-2.028-27.472-7.465-36.733-10.673-3.23-1.119-6.031-3.308-7.981-6.236a17.143 17.143 0 0 1-2.85-9.473c0-.49.02-.97.07-1.459.38-4.607 1.01-10.753 1.53-15.82.53-5.056 2.57-13.55 5.85-17.288 1.831-2.089 3.971-3.798 6.341-5.057a21.57 21.57 0 0 1 7.601-2.428c12.591-1.54 39.233-4.048 79.336-4.048 40.104 0 65.916 2.469 78.287 4.008 5.34.67 10.271 3.338 13.921 7.495 1.64 1.879 2.98 4.946 3.971 8.174.99 3.218 1.63 6.616 1.89 9.154.51 5.057 1.15 11.193 1.53 15.8.32 3.877-.67 7.735-2.79 10.922v.02Z"/><path fill="#0C0F1D" d="m570.459 125.716-1.25-.829a14.627 14.627 0 0 1-3.191 3.448 14.13 14.13 0 0 1-4.03 2.198c-9.181 3.188-27.872 8.624-36.583 10.633-2.26.52-4.13.73-5.681.73-2.98 0-4.75-.74-6.05-1.619-1.31-.89-2.12-1.979-3.09-2.938 0 0-.13-.14-.27-.31-.52-.64-1.481-2.009-2.671-3.778-3.6-5.336-9.44-14.52-14.001-21.645l-.03-.05-.03-.05c-1.03-1.359-2-2.608-3.09-3.718-1.63-1.669-3.58-3.028-6.191-3.887-2.62-.859-5.86-1.269-10.29-1.269h-1.121l.02 1.499v-1.499h-.31c-3.41 0-6.2.33-8.52.909-3.471.86-5.891 2.289-7.661 3.838-1.77 1.549-2.9 3.178-3.91 4.377l-.06.07-.05.08c-3.281 5.066-7.121 11.092-10.341 16.049-1.61 2.478-3.06 4.687-4.201 6.356-.57.839-1.06 1.539-1.45 2.068-.19.26-.36.49-.5.65-.13.17-.24.28-.26.31-.96.949-1.78 2.038-3.09 2.928-1.3.879-3.07 1.609-6.05 1.619-1.551 0-3.421-.21-5.681-.73-8.701-2.009-27.402-7.445-36.583-10.623-2.91-1.009-5.451-2.978-7.221-5.646a15.619 15.619 0 0 1-2.6-8.644c0-.44.02-.88.06-1.319.38-4.597 1-10.733 1.53-15.8.25-2.418.88-5.736 1.83-8.854.94-3.118 2.261-6.036 3.651-7.605a21.08 21.08 0 0 1 5.92-4.727h.03-.02a20.01 20.01 0 0 1 7.071-2.258c12.531-1.53 39.113-4.028 79.156-4.028 40.044 0 65.786 2.469 78.107 3.998 4.961.62 9.561 3.098 12.971 6.995 1.4 1.579 2.72 4.507 3.67 7.635.951 3.108 1.591 6.446 1.841 8.874.51 5.057 1.15 11.183 1.53 15.77.04.429.05.869.05 1.299 0 3.098-.9 6.126-2.6 8.664l1.25.829 1.25.83a18.629 18.629 0 0 0 3.1-10.333c0-.52-.02-1.03-.06-1.549-.39-4.637-1.02-10.773-1.54-15.83-.28-2.658-.93-6.116-1.95-9.443-1.04-3.348-2.39-6.536-4.281-8.725-3.88-4.427-9.14-7.285-14.861-7.994-12.431-1.54-38.553-4.018-78.477-4.018-39.923 0-66.865 2.509-79.516 4.058a23.013 23.013 0 0 0-8.131 2.598c-2.53 1.339-4.82 3.168-6.76 5.386-1.891 2.179-3.231 5.367-4.261 8.695-1.02 3.327-1.67 6.785-1.95 9.423-.53 5.077-1.15 11.223-1.54 15.85a18.612 18.612 0 0 0 3.03 11.882c2.13 3.198 5.191 5.596 8.741 6.825 9.351 3.238 27.992 8.655 36.893 10.713 2.44.56 4.54.81 6.351.81 3.49 0 5.99-.93 7.74-2.139 1.75-1.199 2.79-2.598 3.49-3.268.17-.18.32-.35.491-.569.64-.8 1.58-2.149 2.77-3.918 3.57-5.316 9.301-14.35 13.901-21.455l-1.26-.81 1.15.959c1.51-1.808 2.78-3.717 5.22-5.266 1.22-.77 2.741-1.459 4.781-1.969 2.03-.499 4.57-.819 7.79-.819h1.411c2.83 0 5.08.18 6.9.509 2.74.51 4.5 1.32 6.001 2.469 1.5 1.149 2.76 2.698 4.28 4.707l1.2-.9-1.26.81c3.24 5.066 7.141 11.172 10.421 16.219 1.64 2.518 3.13 4.777 4.32 6.516.59.869 1.11 1.609 1.54 2.188.22.29.41.55.58.76.18.219.33.399.5.569.7.68 1.751 2.079 3.491 3.268 1.76 1.209 4.25 2.149 7.74 2.139 1.821 0 3.911-.24 6.351-.81 8.901-2.058 27.542-7.475 36.893-10.713a16.913 16.913 0 0 0 4.9-2.668 17.504 17.504 0 0 0 3.841-4.157l-1.25-.83h.02Z"/><path fill="#0C0F1D" d="M519.724 136.469c-2.8 0-3.49-.749-4.75-2.118-.29-.32-.57-.61-.83-.88-1.67-2.018-9.501-14.28-14.211-21.635l-5.851-1.799c-.1-.15-.2-.3-.31-.44-5.69-7.525-13.111-7.505-19.772-7.505h-1.41c-13.941 0-17.991 2.918-21.892 7.795-.23.29-.46.58-.69.849-.18.22-.35.45-.51.69-1.46 2.258-4.31 2.099-5.89 4.557-4.291 6.685-10.151 15.799-11.541 17.498-.25.25-.53.55-.82.87-1.26 1.369-1.95 2.118-4.751 2.118-1.31 0-2.86-.2-4.62-.609-8.491-1.959-27.042-7.345-36.083-10.483-1.88-.65-3.53-1.939-4.65-3.628a9.912 9.912 0 0 1-1.661-5.496c0-.27.01-.53.04-.8.38-4.637 1.021-10.833 1.521-15.73.53-5.106 2.51-11.472 4.14-13.34a15.755 15.755 0 0 1 4.47-3.568 15.077 15.077 0 0 1 5.391-1.729c12.241-1.489 38.713-3.997 78.586-3.997 39.874 0 65.606 2.478 77.517 3.957 3.76.47 7.271 2.358 9.861 5.317.61.7 1.6 2.548 2.55 5.606.76 2.498 1.37 5.406 1.61 7.775l.17 1.629c.48 4.676 1.02 9.973 1.35 14.03.18 2.239-.39 4.487-1.62 6.336a9.44 9.44 0 0 1-2.05 2.219 9.066 9.066 0 0 1-2.6 1.419c-9.061 3.138-27.613 8.524-36.103 10.493-1.75.399-3.301.609-4.611.609l.02-.01Z"/><path fill="#97F0E5" fill-rule="evenodd" d="M452.448 110.317c-20.162 4.077-48.244 32.268-54.494 48.717-2.421 6.756-4.211 13.012-5.231 18.748-10.971 61.209 57.175 68.734 80.787 46.169 23.482 22.575 91.638 15.05 80.657-46.169-1.02-5.736-2.68-11.992-5.231-18.748-6.25-16.449-34.333-44.63-54.494-48.717-13.141-3.448-29.483-3.448-41.984 0h-.01Z" clip-rule="evenodd"/><path fill="#0C0F1D" d="m452.448 110.317-.3-1.469c-5.3 1.079-10.97 3.687-16.641 7.215-8.501 5.306-16.991 12.721-23.992 20.386-7.001 7.685-12.491 15.57-14.971 22.046v.03c-2.44 6.815-4.261 13.141-5.301 18.987-.82 4.587-1.21 8.884-1.21 12.911 0 8.135 1.59 15.16 4.381 21.096 4.18 8.914 11.051 15.34 19.101 19.497 8.051 4.158 17.272 6.086 26.302 6.086 6.721 0 13.342-1.069 19.322-3.108 5.971-2.038 11.311-5.046 15.421-8.974l-1.04-1.079-1.04 1.079c4.091 3.928 9.411 6.946 15.371 8.984 5.961 2.039 12.572 3.108 19.282 3.108 12.021 0 24.402-3.417 33.863-11.002 4.73-3.788 8.711-8.635 11.491-14.571 2.79-5.936 4.38-12.961 4.38-21.096 0-4.027-.39-8.334-1.21-12.911-1.04-5.826-2.72-12.172-5.31-19.007-1.65-4.328-4.641-9.254-8.531-14.361-5.83-7.645-13.661-15.629-21.992-22.145-8.341-6.496-17.131-11.532-25.082-13.161l-.3 1.469.38-1.449c-6.721-1.759-14.201-2.629-21.612-2.629-7.41 0-14.741.87-21.152 2.639l.4 1.449.401 1.449c6.09-1.679 13.181-2.529 20.351-2.529 7.171 0 14.431.85 20.852 2.539h.04l.04.02c4.78.959 10.181 3.407 15.641 6.825 8.201 5.117 16.532 12.382 23.362 19.867 6.831 7.475 12.161 15.23 14.381 21.086 2.521 6.675 4.151 12.831 5.161 18.478.79 4.427 1.16 8.554 1.16 12.391 0 7.755-1.51 14.321-4.09 19.827-3.881 8.265-10.211 14.201-17.752 18.108-7.54 3.908-16.301 5.756-24.892 5.746-6.39 0-12.691-1.019-18.311-2.948-5.621-1.918-10.561-4.747-14.262-8.304l-1.04-1-1.04.99c-3.72 3.557-8.681 6.386-14.311 8.304-5.631 1.919-11.941 2.948-18.352 2.948-11.481 0-23.222-3.287-32.012-10.343-4.401-3.527-8.071-7.994-10.661-13.511-2.59-5.516-4.091-12.082-4.091-19.827 0-3.837.37-7.964 1.161-12.381 1-5.627 2.76-11.803 5.17-18.508l-1.41-.51 1.4.53c1.48-3.907 4.34-8.664 8.111-13.601 5.65-7.415 13.341-15.26 21.451-21.596 8.101-6.335 16.652-11.142 23.832-12.581h.051l.05-.02-.401-1.449v-.02Z"/><path fill="#0C0F1D" d="M475 223.941v-30.48h-3v30.48m-54.634-74.44c-19.732 0-35.633 4.577-46.604 9.174-10.971 4.586-17.022 9.183-17.102 9.243l1.82 2.389c.29-.22 6.281-4.677 16.942-9.074 10.661-4.397 25.972-8.724 44.944-8.724v-3.008Zm-7.992 50.316c-17.571 5.686-29.742 16.319-37.513 25.513-7.771 9.194-11.161 16.969-11.201 17.059l2.75 1.199c.16-.39 3.571-7.955 11.091-16.739 7.531-8.794 19.152-18.797 35.783-24.174l-.92-2.848.01-.01Zm3.09-25.193c-22.402.879-39.873 7.345-51.744 13.601-11.871 6.256-18.152 12.292-18.232 12.372l2.08 2.158h.01c.3-.3 6.541-6.166 18.082-12.162s28.372-12.122 49.914-12.971l-.12-2.998h.01Zm117.171-22.125c19.262 0 34.763 4.477 45.444 8.934 5.34 2.228 9.471 4.467 12.261 6.126a69.02 69.02 0 0 1 3.15 1.998c.35.24.62.43.79.55l.19.14.04.03 1.82-2.379c-.08-.06-6.13-4.657-17.101-9.243-10.971-4.587-26.872-9.174-46.604-9.174v2.998l.01.02Zm7.07 50.166c16.902 5.467 28.623 15.7 36.143 24.594 3.761 4.447 6.451 8.544 8.201 11.522a54.875 54.875 0 0 1 1.93 3.528c.21.42.36.739.46.949.05.11.09.19.11.24l.03.06 2.751-1.179c-.04-.09-3.431-7.865-11.201-17.059-7.771-9.194-19.942-19.827-37.514-25.513l-.92 2.848.01.01Zm-2.289-25.043c21.882.859 38.903 7.175 50.464 13.261 5.771 3.038 10.181 6.026 13.131 8.245a67.341 67.341 0 0 1 3.331 2.658c.37.32.65.559.83.729.09.08.16.14.2.19l.05.04h.01l2.08-2.148c-.08-.07-6.361-6.116-18.232-12.372-11.871-6.256-29.342-12.722-51.744-13.601l-.12 2.998Zm-106.3-40.333c.72.03 1.37.31 1.84.779.46.47.72 1.139.69 1.829-.02.75-.3 1.439-.8 1.919-.5.479-1.19.719-1.91.689-.67-.03-1.29-.32-1.77-.809a2.738 2.738 0 0 1-.75-1.999 2.45 2.45 0 0 1 .91-1.789c.5-.409 1.13-.649 1.8-.629l-.01.01Zm19.932 11.612c.77.03 1.44.39 1.87.889.44.51.67 1.15.65 1.819-.02.72-.3 1.389-.8 1.849-.5.46-1.19.69-1.91.66-.67-.03-1.29-.31-1.77-.78a2.59 2.59 0 0 1-.75-1.929c.03-.719.39-1.329.87-1.778.48-.44 1.12-.76 1.84-.74v.01Zm-30.264 14.62c.72.02 1.391.3 1.851.8.47.499.69 1.189.66 1.908-.03.67-.31 1.29-.78 1.769-.47.47-1.161.78-1.931.75-.72-.03-1.34-.39-1.78-.87-.44-.479-.76-1.119-.73-1.838.03-.77.38-1.439.89-1.869.51-.44 1.15-.67 1.82-.65Zm101.1-26.232c-.72.03-1.37.31-1.84.779-.46.47-.72 1.139-.69 1.829.02.75.3 1.439.8 1.919.5.479 1.19.719 1.91.689.67-.03 1.29-.32 1.77-.809.47-.49.78-1.199.75-1.999a2.45 2.45 0 0 0-.91-1.789 2.715 2.715 0 0 0-1.8-.629l.01.01Zm-19.931 11.612c-.77.03-1.44.39-1.87.889-.44.51-.67 1.15-.65 1.819.02.72.3 1.389.8 1.849.5.46 1.19.69 1.91.66.67-.03 1.29-.31 1.77-.78.47-.47.78-1.159.75-1.929-.03-.719-.39-1.329-.87-1.778-.48-.44-1.12-.76-1.84-.74v.01Zm30.261 14.62c-.72.02-1.39.3-1.85.8-.47.499-.69 1.189-.66 1.908.03.67.31 1.29.78 1.769.47.47 1.16.78 1.93.75.72-.03 1.34-.39 1.78-.87.44-.479.76-1.119.73-1.838a2.57 2.57 0 0 0-.89-1.869c-.51-.44-1.15-.67-1.82-.65Z"/><path fill="#fff" d="m416.364 121.689 30.683-30.66-2.12-2.128-30.683 30.66m1.341-12.032 16.511-16.5-2.12-2.128-16.511 16.509m98.778 9.594 23.992-23.975-2.12-2.128-24.002 23.984m-5.34-5.356 16.521-16.5-2.13-2.128-16.512 16.509"/><path fill="#97F0E5" fill-rule="evenodd" d="M473.501 127.705c-7.651 0-15.522-6.096-15.522-6.096.24-.759 2.751-4.117 3.661-6.396 1.56-3.597-4.831-5.816-8.371-5.076-7.621.929 7.021-7.815 20.242-8.045 13.211.23 27.862 8.974 20.241 8.045-3.54-.74-9.93 1.479-8.37 5.076.9 2.279 3.42 5.627 3.66 6.396 0 0-7.871 6.096-15.521 6.096h-.02Z" clip-rule="evenodd"/><path fill="#0C0F1D" d="M473.499 127.705v-1.499c-3.43.01-7.131-1.409-9.941-2.878a36.433 36.433 0 0 1-4.35-2.678c-.11-.08-.19-.14-.24-.18l-.06-.04h-.01l-.92 1.169 1.43.45-.49-.15.48.2v-.04l-.48-.15.48.2s.05-.11.14-.26c.31-.54.98-1.539 1.66-2.638.68-1.1 1.39-2.299 1.84-3.428l-1.39-.55 1.38.6c.24-.55.37-1.119.36-1.689 0-1.039-.43-1.969-1.02-2.668-.9-1.059-2.13-1.749-3.46-2.229a12.396 12.396 0 0 0-4.141-.729c-.62 0-1.22.05-1.8.17l.31 1.469-.18-1.489c-.34.04-.61.06-.81.06-.13 0-.23 0-.27-.02h-.03l-.09.369.16-.349-.07-.03-.09.379.16-.349-.41.919.8-.599a.939.939 0 0 0-.38-.31l-.41.919.8-.6-.94.71h1.18c0-.22-.09-.52-.24-.71l-.94.71h1.18-.81l.7.45s.1-.12.11-.45h-.81l.7.45c.04-.07.29-.32.69-.6.69-.5 1.82-1.149 3.211-1.809 4.2-1.988 10.901-4.097 17.061-4.197l-.03-1.499-.03 1.499c5.09.08 10.541 1.529 14.651 3.158 2.05.809 3.781 1.669 4.931 2.388.57.35 1 .68 1.23.89l.12.13.03.04.12-.08-.13.07.12-.07-.13.07.77-.44h-.87c0 .28.08.4.1.44l.77-.44h-.87 1.18l-.93-.719c-.16.189-.26.499-.25.719h1.18l-.93-.719.83.639-.51-.919c-.08.04-.2.13-.31.27l.83.639-.51-.919.32.569-.2-.619-.12.05.32.569-.2-.619.07.22-.06-.23h-.01l.07.23-.06-.23h-.02s-.14.02-.29.02c-.19 0-.47-.02-.8-.06l-.18 1.489.31-1.469c-.58-.12-1.19-.17-1.8-.17-1.821 0-3.771.44-5.421 1.289-.82.43-1.58.959-2.17 1.669-.59.699-1.02 1.629-1.02 2.668 0 .57.13 1.139.36 1.689l1.38-.6-1.39.55c.53 1.329 1.42 2.768 2.21 4.007.39.62.76 1.18 1.03 1.619.13.22.25.4.32.53l.08.14v.02l.49-.2-.49.15v.04l.49-.2-.49.15 1.43-.45-.92-1.189h-.01c-.19.15-2.15 1.629-4.92 3.038-2.77 1.419-6.351 2.748-9.671 2.738v2.998c4.23-.01 8.281-1.639 11.321-3.218 3.04-1.589 5.07-3.158 5.12-3.198l.82-.639-.31-.99a3.96 3.96 0 0 0-.31-.679c-.2-.36-.46-.77-.75-1.239-.45-.7-.98-1.519-1.47-2.339-.49-.809-.93-1.629-1.17-2.248v-.02l-.02-.02c-.09-.22-.12-.37-.12-.5 0-.22.07-.44.32-.749.37-.46 1.18-.98 2.17-1.329.99-.36 2.141-.56 3.121-.55.44 0 .85.04 1.19.11h.06l.06.02c.43.05.81.08 1.17.08.5 0 .93-.03 1.44-.25.25-.11.54-.29.79-.6a1.8 1.8 0 0 0 .38-1.119c0-.54-.2-.899-.37-1.179-.34-.52-.76-.87-1.28-1.269-.9-.68-2.13-1.389-3.65-2.119-4.541-2.168-11.601-4.447-18.502-4.577h-.05c-5.61.1-11.321 1.639-15.701 3.368-2.19.869-4.051 1.779-5.411 2.628-.69.43-1.25.83-1.7 1.259-.23.22-.43.44-.62.72-.17.28-.37.639-.37 1.179 0 .37.13.81.38 1.119.18.23.39.39.59.5.3.17.57.24.83.28.26.05.52.06.8.06.36 0 .74-.03 1.17-.08h.06l.06-.02c.34-.07.75-.11 1.19-.11 1.311 0 2.921.36 4.051.949.56.29 1 .63 1.25.93.25.309.32.519.32.749 0 .13-.03.28-.12.5v.02l-.02.02c-.37.939-1.19 2.318-1.95 3.517-.38.6-.75 1.16-1.04 1.639-.15.24-.28.46-.39.67-.11.21-.21.39-.31.679l-.31.99.82.639s2.08 1.609 5.12 3.198c3.05 1.579 7.101 3.208 11.321 3.218v-1.499l-.03.04Z"/></svg>